<?xml version="1.0" encoding="UTF-8"?>
<svg xmlns="http://www.w3.org/2000/svg" width="96" height="23" viewBox="0 0 96 23" fill="none">
  <ellipse cx="11.4304" cy="11.2084" rx="11.4304" ry="11.2084" fill="#EB222B"></ellipse>
  <path d="M5.99882 21.073L6.06693 21.0265L6.07233 21.0228L6.09068 21.01C6.10707 20.9985 6.13157 20.9813 6.16307 20.9587C6.22608 20.9135 6.31693 20.8471 6.42668 20.7634C6.64663 20.5957 6.9402 20.3604 7.23685 20.0885C7.53476 19.8155 7.82844 19.5123 8.05361 19.2094C8.23189 18.9696 8.35196 18.7501 8.40866 18.5604C8.25711 18.4099 8.11978 18.2439 7.98303 18.0752L7.91425 17.9902C7.75107 17.7881 7.57878 17.5748 7.36308 17.3439C6.92578 16.8954 6.48838 16.4142 6.06975 15.9537C5.99085 15.8669 5.91215 15.7803 5.83471 15.6953C5.34165 15.1542 4.88245 14.6594 4.47311 14.2803C4.17977 14.0086 3.82065 13.7782 3.47433 13.5559C3.35418 13.4788 3.23539 13.4026 3.1216 13.3261C2.91997 13.1905 2.7081 13.0366 2.57747 12.8698C2.50976 12.7834 2.43926 12.6633 2.42791 12.5152C2.41545 12.3527 2.47784 12.2105 2.57738 12.1007C3.1381 11.4821 4.54409 11.1883 6.75082 12.7877C7.23318 13.1373 7.53861 13.3533 7.72734 13.4822C7.77661 13.4837 7.81469 13.4952 7.8312 13.5007C8.10773 13.3667 8.2777 13.2416 8.38184 13.1243C8.49536 12.9964 8.54494 12.862 8.55123 12.6852C8.55808 12.4929 8.51342 12.2535 8.42337 11.9271C8.37466 11.7506 8.3205 11.5739 8.26056 11.3784C8.20501 11.1973 8.14448 10.9999 8.07873 10.7714C7.56405 9.07384 7.00253 7.28433 6.58115 5.95291C6.45329 5.54891 6.47904 5.17482 6.6381 4.87224C6.79614 4.57159 7.07099 4.37137 7.38 4.29357C8.01749 4.13307 8.72494 4.49309 8.9848 5.33035C9.10414 5.66411 9.27297 6.09495 9.47105 6.60044C9.54179 6.78096 9.61626 6.971 9.69354 7.16954C9.98697 7.92339 10.3171 8.79037 10.6241 9.69343L10.6283 9.70599L10.6316 9.71878C10.7008 9.72956 10.7986 9.73233 10.9045 9.72329C10.9844 9.71648 11.0556 9.70411 11.1107 9.68986V3.69114C11.1107 2.8915 11.8117 2.49082 12.4056 2.4624C12.712 2.44775 13.04 2.52308 13.2994 2.72162C13.5691 2.92802 13.7348 3.24578 13.7348 3.64519V9.85831C13.7972 9.88646 13.8857 9.91543 13.9852 9.93663C14.0748 9.95572 14.157 9.96519 14.2204 9.96638C14.2311 9.93232 14.2407 9.90014 14.2475 9.87515L14.2503 9.86472V9.83461L14.2708 9.7784C14.4995 9.15029 15.3864 6.13106 15.715 4.93408L15.7164 4.92899C15.9178 4.23788 16.6449 3.95711 17.2094 4.01463C17.5035 4.04459 17.8093 4.16815 18.0123 4.42465C18.2227 4.69036 18.2783 5.04194 18.1752 5.43181L18.1737 5.43754L18.172 5.44322C17.7989 6.67793 17.1442 9.06234 16.7702 10.5293L16.7466 10.6219L16.7241 10.6439C16.712 10.6835 16.6979 10.7381 16.6841 10.7978C16.6774 10.8266 16.6711 10.8554 16.6653 10.8826C16.7064 10.9038 16.7559 10.9267 16.8104 10.9489C16.8599 10.9692 16.9083 10.9868 16.9518 11.0009C16.9834 10.9572 17.0263 10.9051 17.0873 10.8331C17.3178 10.5124 17.6187 10.0691 17.915 9.63243L18.0932 9.37001C18.4343 8.86832 18.7637 8.38814 18.9234 8.20385C19.0804 8.01432 19.3083 7.90627 19.5242 7.86028C19.7434 7.81361 19.9914 7.82161 20.2112 7.90958C20.4393 8.00088 20.6458 8.1851 20.7155 8.47381C20.7817 8.74851 20.7082 9.05354 20.5339 9.3692L20.5312 9.374L20.5284 9.37871C20.2461 9.85331 19.7865 10.5425 19.335 11.2197L19.3335 11.2219C19.2517 11.3446 19.1702 11.4669 19.09 11.5874C18.8265 11.9837 18.5767 12.3625 18.3756 12.6816C18.1721 13.0046 18.0316 13.2462 17.9722 13.3806C17.8408 13.7047 17.6249 14.4484 17.3891 15.2925C17.3288 15.5082 17.2676 15.7292 17.2066 15.9493C17.0326 16.5773 16.8606 17.1978 16.721 17.6603C16.5271 18.3867 16.0689 18.8129 15.6338 19.122C15.509 19.2107 15.367 19.3021 15.2397 19.3841C15.1632 19.4333 15.0919 19.4792 15.033 19.5189C14.8593 19.636 14.7358 19.7349 14.6536 19.8361C14.5999 19.9191 14.4924 20.1312 14.3514 20.4353C14.21 20.7399 14.0473 21.1096 13.8941 21.468C13.7792 21.7369 13.6702 21.998 13.5803 22.2189C12.884 22.3489 12.1653 22.4169 11.4304 22.4169C9.46447 22.4169 7.61446 21.9302 5.99882 21.073Z" fill="white"></path>
  <path d="M28.1309 15.7757H26.6705L28.3028 6.81679H30.1928L31.825 15.7757H30.3646L30.1068 13.7556H28.4746L28.1309 15.7757ZM28.6464 12.4381H29.8491L29.2478 8.57345L28.6464 12.4381Z" fill="#EB222B"></path>
  <path d="M36.7219 9.10044V15.7757H35.4332V15.0731C34.8319 15.6001 34.5741 15.8636 33.801 15.8636C33.1137 15.8636 32.6841 15.3366 32.6841 14.4582V9.10044H34.0587V14.2826C34.0587 14.6339 34.2305 14.8096 34.5741 14.8096C34.8319 14.8096 35.1755 14.6339 35.4332 14.3704V9.10044H36.7219Z" fill="#EB222B"></path>
  <path d="M37.4951 10.2423V9.10044H38.2682V7.25595H39.6428V9.10044H40.5878V10.2423H39.6428V14.1069C39.6428 14.4582 39.8146 14.6339 40.0723 14.6339H40.5019V15.8636C40.3301 15.9514 40.1583 15.9514 39.8146 15.9514C38.7837 15.9514 38.1823 15.4244 38.1823 14.4582V10.3301L37.4951 10.2423Z" fill="#EB222B"></path>
  <path d="M41.2751 11.3841C41.2751 9.89094 41.8764 8.92478 43.4228 8.92478C44.9692 8.92478 45.5705 9.97877 45.5705 11.3841V13.3164C45.5705 14.8096 44.9692 15.7757 43.4228 15.7757C41.8764 15.7757 41.2751 14.7218 41.2751 13.3164V11.3841ZM44.196 11.2084C44.196 10.4179 43.9383 10.1544 43.4228 10.1544C42.9073 10.1544 42.6496 10.5058 42.6496 11.2084V13.6678C42.6496 14.4582 42.9073 14.7218 43.4228 14.7218C43.9383 14.7218 44.196 14.3704 44.196 13.6678V11.2084Z" fill="#EB222B"></path>
  <path d="M46.8592 15.7757V6.72895H49.0069C50.8969 6.72895 51.756 7.43162 51.756 9.36394C51.756 11.2963 50.8969 11.9989 49.0069 11.9989H48.3196V15.6879L46.8592 15.7757ZM48.3196 10.7693H48.921C49.866 10.7693 50.2097 10.4179 50.2097 9.36394C50.2097 8.30994 49.866 7.95861 48.921 7.95861H48.3196V10.7693Z" fill="#EB222B"></path>
  <path d="M52.8728 15.7757V9.10044H54.1615V9.89094C54.5051 9.27611 55.0206 9.01261 55.7079 9.01261H55.9656V10.5058C55.7078 10.4179 55.4501 10.3301 55.1065 10.3301C54.6769 10.3301 54.1615 10.5936 54.1615 11.2084V15.7757H52.8728Z" fill="#EB222B"></path>
  <path d="M56.8247 11.3841C56.8247 9.89094 57.426 8.92478 58.9724 8.92478C60.5188 8.92478 61.1201 9.97877 61.1201 11.3841V13.3164C61.1201 14.8096 60.5188 15.7757 58.9724 15.7757C57.426 15.7757 56.8247 14.7218 56.8247 13.3164V11.3841ZM59.6597 11.2084C59.6597 10.4179 59.402 10.1544 58.8865 10.1544C58.371 10.1544 58.1133 10.5058 58.1133 11.2084V13.6678C58.1133 14.4582 58.371 14.7218 58.8865 14.7218C59.402 14.7218 59.6597 14.3704 59.6597 13.6678V11.2084Z" fill="#EB222B"></path>
  <path d="M62.3229 15.7757V6.72895H63.6974V9.62744C64.2129 9.18827 64.4706 8.92478 65.2438 8.92478C65.9311 8.92478 66.3606 9.45177 66.3606 10.3301V15.7757H64.9861V10.5936C64.9861 10.2423 64.8143 10.0666 64.4706 10.0666C64.2129 10.0666 63.8693 10.2423 63.6115 10.5058V15.7757H62.3229Z" fill="#EB222B"></path>
  <path d="M67.7352 8.04645V6.81679H69.1097V8.04645H67.7352ZM67.7352 15.7757V9.10044H69.1097V15.7757H67.7352Z" fill="#EB222B"></path>
  <path d="M70.3984 15.7757V6.72895H71.7729V9.62744C72.2884 9.18827 72.5461 8.92478 73.1475 8.92478C74.0066 8.92478 74.522 9.53961 74.522 10.7693V14.0191C74.522 15.2487 74.0066 15.8636 73.1475 15.8636C72.4602 15.8636 72.1166 15.6001 71.687 15.0731V15.7757H70.3984ZM71.7729 14.3704C72.0306 14.5461 72.2884 14.7218 72.5461 14.7218C72.8897 14.7218 73.2334 14.5461 73.2334 13.6678V11.2084C73.2334 10.3301 72.9756 10.1544 72.5461 10.1544C72.2884 10.1544 72.0306 10.3301 71.7729 10.5058V14.3704Z" fill="#EB222B"></path>
  <path d="M75.8107 8.04645V6.81679H77.1852V8.04645H75.8107ZM75.8107 15.7757V9.10044H77.1852V15.7757H75.8107Z" fill="#EB222B"></path>
  <path d="M81.3089 11.3841V11.2084C81.3089 10.4179 81.0511 10.1544 80.5357 10.1544C80.0202 10.1544 79.7625 10.5058 79.7625 11.2084V13.6678C79.7625 14.4582 80.0202 14.7218 80.5357 14.7218C81.0511 14.7218 81.3089 14.3704 81.3089 13.6678V13.2286H82.6834V13.4043C82.6834 14.8974 82.082 15.8636 80.5357 15.8636C78.9893 15.8636 78.3879 14.8096 78.3879 13.4043V11.4719C78.3879 9.97877 78.9893 9.01261 80.5357 9.01261C82.082 9.01261 82.5975 9.97877 82.6834 11.3841H81.3089Z" fill="#EB222B"></path>
  <path d="M83.8861 8.04645V6.81679H85.2607V8.04645H83.8861ZM83.8861 15.7757V9.10044H85.2607V15.7757H83.8861Z" fill="#EB222B"></path>
  <path d="M86.5493 11.3841C86.5493 9.89094 87.1507 8.92478 88.6971 8.92478C90.2434 8.92478 90.8448 9.97877 90.8448 11.3841V13.3164C90.8448 14.8096 90.2434 15.7757 88.6971 15.7757C87.1507 15.7757 86.5493 14.7218 86.5493 13.3164V11.3841ZM88.783 8.22211H87.7521L88.6971 6.46545H90.3293L88.783 8.22211ZM89.3843 11.2084C89.3843 10.4179 89.1266 10.1544 88.6112 10.1544C88.0957 10.1544 87.838 10.5058 87.838 11.2084V13.6678C87.838 14.4582 88.0957 14.7218 88.6112 14.7218C89.1266 14.7218 89.3843 14.3704 89.3843 13.6678V11.2084Z" fill="#EB222B"></path>
  <path d="M91.9616 15.7757V9.10044H93.2503V9.8031C93.8516 9.27611 94.1094 9.01261 94.8825 9.01261C95.5698 9.01261 95.9994 9.53961 95.9994 10.4179V15.8636H94.6248V10.6814C94.6248 10.3301 94.453 10.1544 94.1094 10.1544C93.8516 10.1544 93.508 10.3301 93.2503 10.5936V15.8636L91.9616 15.7757Z" fill="#EB222B"></path>
</svg>
