<?xml version="1.0" encoding="UTF-8"?>
<svg xmlns="http://www.w3.org/2000/svg" version="1.1" viewBox="0 0 376.9 271.3">
  <defs>
    <style>
      .cls-1 {
        fill: #e52520;
      }

      .cls-2 {
        fill: rgba(255,255,255,.8);
      }

      .cls-3 {
        fill: #e1251b;
      }

      .cls-4 {
        fill: #fff155;
      }
    </style>
  </defs>
  <g>
    <g id="Capa_1">
      <g>
        <path class="cls-1" d="M168.8,66.3c.1.5.5.2.6.9h-.7c-.1-.5.2-.3.1-.9"/>
        <path class="cls-1" d="M90.3,92.5c-.3.2-.4-.1-.5-.3-.6.4-1.2-.2-1.6.2l-.3-.5h-.6c-.2,0,0-.1.2-.1h.4c.4,0,.4,0,1,0,.5.3,1.3-.1,1.5.8"/>
        <path class="cls-1" d="M95,92.4c-.6-.2-1.3,0-2-.2.5-.7.8,0,1.3-.5.4.4.8-.5.7.7"/>
        <path class="cls-1" d="M91.6,93.7c-.2-.5-.3,0-.6-.3-.1,0,0,.3,0,.6-.2.6,0-1.4-.4-.9.3-.8,1.2-.7,1.2.6"/>
        <path class="cls-1" d="M90.3,93.6c.4,1-.8.4-1.1.5-.4-.4.7,0,.7-.5,0,.2.3,0,.3.4,0,0,0-.3,0-.4"/>
        <path class="cls-3" d="M154.4,58.7c-.4-.3-34.3,5.2-35,5.2-1.9.5-3.3,1.2-5.3,1.4-.2.7-.9.6-1.3.5-.7.4-2,.5-2.7.3-2.7.7-4.2,1.5-7.1,2-2.3,1.3-4.7,1.4-6.8,2.9-.3-.3-1,.3-1.3.5-2.4.5-4.6,1.5-7.3,2-1.5.2-2.9.4-4.3,1.2-.6-.2-1,.3-1.6,0-3.1,1-7,2.2-9.9,2.3-.1,0-.2.3-.4.2l-7.3.8c-.1,0-.1.2-.3.2-1.8.3-3.5.4-4.9,1.1-1.9.2-3.5.9-5,1.8-2.6.8-4.5,1.8-7.2,2.5-.4.4-.6.3-1.1.3-1,.4-1.8.7-2.7,1-.2.2-.4.4-.6.5-.9.2-1,.6-1.8.7-.4.6-1.5.5-2.2,1.1-2.7.9-4,1.8-6.3,1.5-1.6.1-2.6.1-4.2,0l-.9.2c-.1,0-.2-.2-.3-.1l-1.8.4c-.2.2-.2.5-.4.7-1.4.3-2.4.7-3.6.2-.3.3-1,.4-1.7.5-.6.1-1.3.3-1.6.8,1-.3,1.6,0,2.2-.5.1.2.2.3.1.6.2.1.6-.1.7.4-.3,0-.7.3-.9,0,0,.8-.9,0-.8.9,1-.4,2.1-.2,2.7-.6.5.6,1.4,0,2.1.3,1-.3,1.2,0,2.3-.3.4.3,1.1-.2,1.4.5.5,0,.5,0,.9,0,.2.3.8.5.6.8-.2,0-1.1,0-.7.3,1.5-.2,2.3.4,3.6.2,0,.2.2.2.2.5.6,0,1,.5,1.8.2,0,.1,0,.4.2.3,0-.1,0-.4,0-.4.1.3.5.1.7.3,1.7-.2,2.8,0,4.2-.7.8,0,1.6-.9,2.7-.8,2-.9,4-1.6,6-2.4.3,0,.5,0,.6.1,0-.3.3-.3.5-.5,1.4,0,2.5-.7,3.7-1.1.5.3.9-.3,1.6-.2.2.3.4,1.5.6.9-.1,0-.2-.3,0-.4.2-.4.3.2.7.1.5-.4,1.3-.4,1.9-.8.3.2-.2.6.1.7.2-.4.8-.1.9-.7-.1,0-.5.3-.5-.1.5-.4.8-.4,1.3-.3.4-.7.8-.4,1.3-.9,1.8,0,3.1-.7,4.6-1.1.3-.2.3.2.5.1,0-.2.2-.2.3-.2h.4c.2-.1,0-.3-.2-.2-.3-.2-.7-.1-1.1,0-.2.4-.8.2-1.2.3,0-.5.1-.5,0-1-.7-.1-1.3.6-1.6,0-1,.3-1.8.7-2.8.9,0-.4-.5,0-.5-.5.7-.5,1-.2,1.7-.6,0-1-.6.4-.5-.5,2.2-.6,4.2-1.4,6.3-1.3,0,.3,0,.6.1.8.9.1,1.7-.7,2.4-.3.3.1,1-.5,1,.3,0,.5-1,0-.6.4,1.1-.2,1.3,0,2-.6,1.3,0,2.1-.6,2.9-.1-.8.3-1.3.4-2,.2,0,.5.2.4.1.9.4-.1.2-.6.4,0,.3-.5.4-.2.7-.5.8,0,1.6-.2,2.2-.4.4-.1,1,.3.7-.4-.3,0-1.5.3-1.9,0,.9-.2,2.2-.7,2.9-.5,0,0-.7.5-.5.8.4-.3.7-.6.8-1.2.3.5.7-.3,1.2-.1.3.2.4.4.4.7,1.1-.4,3.6-1.1,4.9-1.2,0,.3-.3.1-.3.4.4.3.9,0,1.4-.1.2.5.4-.1.4.5-.6,0-.9.3-1.1.9,0-.2-.7.2-1,.3h-1.5c-.1.2-.2.4-.4.4-.8-.3-1.9.2-2.6.6.1,0,.3,0,.3.1-.4.1-.6.6-.9.7-.2-.3-.8,0-1.2,0-.2.5-.8,0-.7.6,1.5.6,3.4-.8,5.1-.5,0-.5.4-.3.5-.6.3.4.7-.3,1,0-1.4.5-2.5,1.3-3.8,1.1,0,.7-.7.3-.8.6-.1,0,0-.3-.2-.3-.1.6-.4.1-.7.6-.4-.1-1.5.5-2.1.8.1,0,.3.3.1.4-1.3,0-1.5-.3-2.5,0,0,.6-.5.6-.6,1-.3.1-.6.3-.8.5h-.7c-.1,0-.2.3-.3.3h-.7c-.2.2-.6-.1-.5.5,1.5.6,3.4-.9,5.1-.5,0,.2,0,.4.2.3.4,0,.8,0,1,0,0-.2.2-.2.3-.2.5,0,.6-.1.8.1.3-.2.4-.3.5.3-.4.2-.6-.2-.6.4.6,0,.9-.1,1.3-.3-.1.5.3.7,0,.9-.3-.6-.2-.2-.3.2-.1,0,0-.3-.2-.4.1.6-.3.3-.4.6-.3-.4-1,.2-1.2-.4,0,.6-.3.4-.5.6,0-.3,0-.4,0-.6-.8.5-1.3.3-2.3.6-.1,0,0,.3-.2.4,0-.8-.6-.3-.6,0,0-.8-1-.1-1.1.1.4-.3,0,.6.3.5-.2-.6.4-.8.4-.4-.2,0-.4,0-.3.4,1.2.3,1.9.2,2.9-.7.6,0,1.2,0,1.7-.4.4,0,.4.1.9.1.3,0,.2-.4.5-.2.2,0,.2.2.4.1.3-.2.2-.2.4.1.1-.3.4-.4.6-.4-.1.8,0,.2,0,.5-.2.6-.8.4-1,.9.3,0,.6,0,.5.5-.3-.1-.4.2-.6.2-1.4.3-2.7.5-4.2.6-.1,0-.1.3-.3.2-.6.2-.5,0-1,.3h-.4c-.1,0-.4.1-.2.3h.9c.1,0,.4,0,.6,0,.4-.6,1.2-.5,1.8-.7.2.1.4.3.6.3,1.3,0,2.7-.5,4.2-.6.8-.3,2.3-.8,2.7-.6-.3.5-.5.2-.9.5-.1.5-.8.2-.8.8,1.3,0,2.7-.7,3.9-.9.2,0,.2.2.4.2.3-.2.4,0,.7-.3.2.2.6.1.8.3,2.6-.4,5.2-.7,7.3-1.1h1.2c1-.6,2-.7,2.7-.9.4.4.6-.1,1,0,.5-.4.6,0,1.4-.1.2,0,.3.2.4.3.6-.2,1.7-.9,2.8-1,.1,0,.1.2.3.1.4,0,.6-.1.8-.3.9.3,1.5-.2,2.5-.4,0,.3.2.4.3.5,0,.4.3-.3.2.5,0,.6-.2-.2-.4,0,0,.6.4.2.3.9.3,0,.6,0,.7.3h.6c.7.3,1.3.7,1.9,1.1.4.8,1.3.8,1.7,1.5.7,0,1.2.5,1.5,1.1.4,0,.7.2,1.1.3h.6c.8.5,2,.2,2.9.5,1.5-.2,3.6-.5,5.2-.6,2,1.6,4-.2,6.3.7h1.1c1.8.5,4.5-.4,6.1.2.5,0,.7-.2,1.1-.3.9.2,1.7-.2,2.5.2,1.5-.6,3.5.1,5-.5,1.3.6,2.9-.5,3.9.4,0-.2,0-.5.2-.4.3.2.7,0,1-.3.6.3,1.6-.1,2.4-.2.4,0,.7.4,1.2.4,0,0,1.7.2,1.8,0,.3.4.5.1,1.1.2,0,.2,0,.4.2.3.4.2.3-.4.5-.6,0,.9,14.3-1.2,14.8-1,.3.1,7.3-.7,8.2-1,.5-.2,5-4,4.7-4.8.5.1.2-.7.4-.8.1.8-.3-1.8-.7-1.9.3.1.1-.4.1-.8.6.6-.1-.7.6-.7,0-.6-.3-.7,0-1.1,0,.2.2-5.1,0-6.6,0-.6-.2-.7-.3-1.1.1-.1.1-.4,0-.8,0-.8-.3-1.2-.4-1.6.2-.2-.1-1-.1-1.5-.3-.9-.6-2-1-2.8-.4-2-1.2-2.8-1.6-4.6-.3-.2-.5-.7-.8-1-.2-.4-.3-1-.6-1.2,0-.8-.3-.6-.5-1,.1,0-.6,0-.7-1.2,0,0-1.6-1.2-1.7-1.2-.1-.2-9.1-4.6-9.8-4.7-3.5-.6-14,1.8-14,1.8M47.7,89.5c0,.8-.6.6-1,.7-.4.1-.6.4-1,.3.3-.9,1.2-.9,2.1-1.1M50.2,89.3c0,.6-.5.4-.8.5-.3-.2-.7.4-.7.1,0-.8,1.2-.8,1.6-.6"/>
        <path class="cls-1" d="M95.5,92.7c.1,0,0,.2,0,.2,0,.2.3.1.4.1-.3.4-.7.5-1.2.5-.2-.4-.8,0-.8-.7.3.2.9-.3,1.5-.2,0,.1-.1.2-.1.4,0,0,.2-.2.2-.4"/>
        <path class="cls-4" d="M131.8,108.6c-.3,0-.3-.4-.4-.7-.3-.5-.6-.9-.8-1.5-.5-.3-1-.7-1.4-1.2-.7.2-1.1-.3-1.7-.4-.3-.4-.5-1.1-.8-1.5-.6-.2-1.3-.8-2-.9-.9-.2-1.9,0-2.9-.1-3-.3-5.9-.6-8.8-.6-.3.1-.6.5-.9.5-3.4.5-6.7,1-10.1.7-2.2-.2-4.4-.8-6.6-1-.5,0-1.1,0-1.7,0-.7,0-1.5-.3-2.2-.4-1.7-.1-3,0-4.5,0-3.2.6-5.8,2.3-9.1,2.7-1,.7-2.2.8-3.2,1.6h-.8c-2.4,1.8-5.3,2.3-7.7,3.9-1.4.5-2.5,1.6-3.9,1.9-2.3,1.6-5.7,1.6-8,2.6-.2,0,0,.4.1,0,2.4-.2,4.7-1.1,7.2-1.6.5-.5,1.1-.6,1.7-.8.5-.2,1.2-1,1.6-.6-.2.1-.4.1-.4.8,0,.4-.3.4-.5.5-.3.4-.8.4-1.2.6-.7.6-1.7.5-2.5,1.1-.9-.1-1.5.5-2.3.6-.2.2-.3.8-.6.8-.6-.2-.8,0-1.3.3-1.8.2-3.6.6-5.5.7-.5.3-1.1.4-1.6.6h-.4c0,.4.3.2.4.3h.5s.5,0,.5,0c2.4,0,5-.3,7.5-.8,1,0,2.3-.2,3.6-.4.6-.1,1.3-.2,1.9-.3,1.1-.3,2.2-1.2,3.2-.9-.6.2-1,.9-1.5,1.3-2.1,1-4.3,2.7-6.8,3.1-.3,0-.8,0-1.1,0-.4.2-.8.7-1.2,1.1-1.1.3-2.2.7-3.3,1.1h-1.2c-.6.4.5.3.7.3l6.2-.3c.4.1,1-.4,1.1.5-1.2.7-3,0-4.2.7,1.2.5,2.7.3,3.4.1,1.2-.2,2.2.5,2.9-.1.3,0,.5,0,.6.2,0,.5.5,0,.2.8,0,.8-.3.8-.6.8-.3,0-.5.4-.9.3-.4.6-1.3.2-1.6,1.1.4.2.5,1,.9,1.2.5,0,.8.4,1.4.2.7.5,1.7.4,2.4.9.6.1,1.4-.4,1.8.2h-.3c-.2,0,0,.4.2.3h.5c.4.1,0,1,.5,1,.4,0,.7,0,.9.2.3,0,.7,0,.8.7,0,1.1-.5.8-.8,1.3-.3.3-.6.8-1,1.1-2,.8-4.4-.2-6.4,1,4.4.2,8.9.6,13.1.7.5,0,.4.6.8.2,1.3.8,2.8-.9,4-.2,0,.6-.4.3-.5.8,2.2-.3,4.9-.9,7.3-1.6,0-1.2-.8,0-.9-.7,1.8-.5,3.4-.9,5-1.5.2.1.4.5.6.7,1.7-.7,4-.6,5.7-.8,1.7,1.1,3.8.9,5.7,1.3,2.1-.3,4-.6,6.1.2,1.9-.2,3.2.9,5,0,.2.4.6.3.9.5.6-.6,1.2,0,1.7,0,.8,0,2.3-.2,2.9-.4.2,0,.3.2.4.2,1.6,0,3.1.3,4.4.6,1.2.2,2.3.5,3.3.6.1,0,.1-.3.3-.3,0,0,.2.2.3.2.8.2,1.4,0,2,0,.4,0,.9.3,1.3.2.9-.1,1.7-.9,2.5-.9.9-1.4,1.9-2.5,2.5-4.4,0-.9-.2-2.2,0-2.8-.4-1.5-.3-2.7-.5-4.5-.4-.8-.7-1.6-1-2.5.2-.8-.1-1.8-.1-2.8-.2,0-.3-.6-.4-1-.1-.4-.4-.5-.2-1-.3,0-.5,0-.6-.5-.3,0-.5,0-.6-.7.4.2.4-.5.8-.3-.2-1.8.2-2.5.2-3.8-.2,0-.2-.4-.2-1M65.8,128.3c-.3-.2.2-.3.3-.3.3.2-.2.4-.3.3M65.2,111.2c-.1-.8.2-.5.4-.5,0,.3-.2.5-.4.5"/>
        <path class="cls-2" d="M172.3,102.1c7.4-.5,12,.6,13.6,3.3,1.6,2.7,2.4,6.2,2.3,10.4-.1,4.2-2.3,7.8-6.7,10.7-4.3,2.9-10.1,5.8-17.2,8.7-2,.7-3.8,1.1-5.4,1.1-1.6,0-2.9,0-4-.2-1.1-.1-1.9-.3-2.5-.4-.6-.1-1,0-1.1.2-2,2.9-3,5.7-3.1,8.6,0,2.9,1.5,5.2,3.2,7.9,8.4,13.5,40.4-3.2,36.1.2-4.4,3.3-13.9,12.9-18.6,14.4-4.6,1.4-9.1,1.9-13.6,1.3-4.4-.5-7.8-1.5-10-2.7-2.2-1.3-4.3-2.8-6.2-4.6-1.9-1.8-3.4-3.9-4.7-6.3-1.2-2.4-1.9-5.7-1.9-9.9,0-4.2,1.1-8.8,3.3-13.7,2.3-4.9,4.9-9,7.7-12.3,2.9-3.3,6.8-6.5,11.8-9.8,4.9-3.3,10.6-5.5,16.9-6.7M172.5,115.4c-.8-.7-2.7-.3-5.8,1-3.1,1.4-5.3,2.9-6.7,4.7-1.4,1.7-1.6,3-.7,3.8.9.8,2.8.5,5.7-.9,2.9-1.4,5.2-2.9,6.9-4.3,1.7-1.4,1.9-2.8.6-4.2"/>
        <path class="cls-2" d="M215.6,102.5c3.2-1,6.2-.8,9.2.5,3,1.4,4.7,3.9,5.4,7.7.6,3.8-.3,10.1-2.9,19.1-2.6,9-25.3,57-30.6,65.1-5.3,8.1-11.3,14.7-17.9,19.9-6.6,5.2-13.3,7.9-19.9,8-6.6.1-12.9-1.5-18.8-5-5.9-3.5-8.8-6.9-8.6-10.4.1-3.5,3.4-3.5,9.7,0,6.3,3.4,12.4,3.4,18.2-.2,5.8-3.6,11.2-8.8,16.2-15.5,5.1-6.7,18.6-37.4,19.8-44.8,1.2-7.3-.4-10.2-4.5-8.5-4.2,1.7-9.1,3.9-14.8,6.7-5.7,2.8-9,4-9.9,3.5-.9-.5,2.7-2.9,10.7-7.4,8-4.4,15.7-11.7,23-22,7.4-10.3,12.6-15.9,15.8-16.8"/>
        <path class="cls-2" d="M269.3,103.1c2.3-.9,5-1.3,7.9-1.2,2.9.2,5.3.9,7.2,2.3,1.9,1.3,3.9,4.2,5.9,8.4,2,4.3,1.6,7.3-1.2,9.2-2.8,1.8-5.6,1.6-8.3-.7-2.7-2.3-5.3-2.6-7.7-.8-2.5,1.8-4.9,3.6-7.3,5.5-2.4,1.8-5.3,4.7-8.8,8.5-3.4,3.8-6.9,8.5-10.3,14.2-3.5,5.7-5.3,9.3-5.6,10.8-.3,1.5.7,1.2,3-1,2.3-2.1,5.8-5.3,10.5-9.7,4.7-4.3,10.7-8.9,18-13.7,7.3-4.8,12-6.8,14.2-6.2,2.1.7,4.1,2.1,5.8,4.3,1.7,2.2,1.9,4.1,2.3,5.8.4,1.7-.5,7.5-1.1,11.1-.5,3.6,0,7,1.3,10.2,1.4,3.2,3,5.3,4.7,6.3,1.8,1.1,4.4,2.2,6.8.4,0,0-7.3,8-12.2,8.5-2.5.3-4.5-.6-6.8-2.5-2.3-1.9-4.2-4.3-5.8-7.2-1.5-2.9-2.6-5.1-3.1-6.5-.6-1.4-1.7-2.9-3.4-4.5-1.7-1.6-3.6-1.8-5.7-.6-2.1,1.2-5.7,4.3-10.7,9.4-5.1,5-9.8,9.2-14.3,12.6-4.5,3.4-8.6,5.8-12.2,7.3-3.7,1.5-6.1,2.1-7.2,1.9-1.1-.2-2.5-1.4-4-3.6-1.5-2.2-2.6-4.6-3.1-7.2-.5-2.7-.4-5.4.2-8.3.6-2.8,3.4-8.7,8.4-17.6,5-8.9,9.9-16.2,14.8-22.1,4.9-5.8,10.2-10.9,15.9-15.2,5.7-4.3,9.7-7,12.1-8.1"/>
        <path class="cls-2" d="M300.5,118.2c.8-10.6,2.4-16,5-16.2,2.6-.3,4.7.4,6.3,2.1,1.6,1.7,2,4.1,1,7.3-1,3.1-.9,4.5.3,4.1,1.2-.4,2.7-1.5,4.5-3.1,1.8-1.7,3.5-3,5.2-4.2,1.7-1.1,3.1-1.9,4.2-2.3,1.1-.4,3.3-.5,6.7-.2,3.4.3,6.7,1,9.8,2.2,3.2,1.1,7,.5,11.4-1.8,4.4-2.3,4-1.8-1.3,1.7-5.3,3.5-10.9,5.7-16.9,6.7-6,1-10.5,2.6-13.5,4.8-3,2.2-5.4,4.4-7.3,6.7-1.9,2.3-3.4,5.7-4.5,10.3-1.1,4.6-1.9,8.4-2.3,11.5-.5,3.1-.9,5.6-1.3,7.6-.4,2-1.9,3.3-4.3,3.9-2.4.6-4.2,0-5.3-1.6-1.1-1.6-.4-7.5.2-14,.7-6.4,1.3-14.9,2-25.4"/>
        <path class="cls-3" d="M121.8,146.1c-.3,0-.5-.4-.6-.7-.4-.5-.8-.9-1.1-1.5-.7-.3-1.3-.7-1.9-1.2-.9.2-1.5-.3-2.3-.4-.4-.4-.6-1.1-1.1-1.5-.9-.2-1.9-.7-2.8-.9-1.3-.2-2.7,0-4,0-4.1-.2-11.1,6-14.5,7.7-1.9.5-3.4,1.6-5.3,2-3.3,1.7-7.8,1.7-11.1,2.7-.3,0,0,.4.1,0,3.3-.2,6.5-1.2,10-1.7.7-.5,1.6-.6,2.4-.9.7-.2,1.7-1,2.3-.6-.3.1-.6.1-.5.8-.1.4-.5.4-.7.5-.5.4-1.1.4-1.7.6-1,.6-2.4.6-3.4,1.2-1.3-.1-2,.5-3.1.6-.3.2-.4.8-.8.8-.8-.2-1.1,0-1.8.3-2.6.2-5,.7-7.6.8-.7.3-1.5.4-2.3.6h-.6c0,.4.4.3.6.3h.7s.7,0,.7,0c3.3,0,6.9-.4,10.3-.9,1.5,0,3.2-.2,5-.5.8-.1,1.7-.2,2.6-.4,1.6-.3,3.1-1.2,4.4-.9-.9.2-1.4.9-2.1,1.3-2.9,1-6,2.7-9.5,3.2-.5,0-1.1,0-1.6,0-.6.2-1.2.7-1.7,1.1-1.5.4-3,.8-4.5,1.2h-1.7c-.8.4.7.3,1,.3l8.6-.4c.5.1,1.3-.4,1.4.4-1.7.7-4.2,0-5.8.8,1.6.4,3.7.2,4.7,0,1.6-.3,3,.5,4-.2.4,0,.7,0,.9.2,0,.5.7,0,.3.7,0,.8-.4.8-.8.8-.5,0-.7.5-1.3.3-.6.7-1.8.2-2.3,1.1.5.1.7,1,1.2,1.2.7,0,1.1.4,1.9.2,1,.5,2.3.4,3.3.9.8.1,1.9-.4,2.4.2h-.4c-.2.1,0,.4.3.2h.7c.6.1.1,1,.6.9.5,0,.9,0,1.3.2.4,0,1,0,1,.7,0,1.1-.8.8-1.1,1.3-.5.4-.9.8-1.4,1.1-2.8.9-6.1-.1-8.8,1.1,6.1.1,35.9-.6,37-.6,1.2-1.4,2.6-2.5,3.5-4.4,0-.9-.2-2.2,0-2.8-.5-1.5-.4-2.7-.6-4.5-.5-.8-.9-1.6-1.4-2.5.3-.8-.1-1.8-.1-2.8-.3,0-.3-.7-.5-1-.1-.4-.5-.5-.2-1-.4,0-.7,0-.9-.5-.4,0-.7,0-.7-.7.5.2.6-.4,1.1-.3-.2-1.8.3-2.5.4-3.8-.3,0-.3-.4-.3-1M92.6,166.3c-.5-.2.2-.3.4-.3.5.2-.3.3-.4.3M92.1,149.2c-.2-.7.3-.5.5-.5,0,.3-.3.5-.5.5"/>
        <polygon class="cls-2" points="203.9 62.3 199.5 62.3 199.5 64.8 203.1 64.8 203.1 66.1 199.5 66.1 199.5 69.8 198 69.8 198 61.1 203.9 61.1 203.9 62.3"/>
        <path class="cls-2" d="M211.6,69.8h-3.6c-2.5,0-3.7-1-3.7-3.1s1.2-3.1,3.7-3.1,3.6,1,3.6,3.1v.6h-5.7c.2.9.9,1.3,2.1,1.3h3.6v1.2ZM210,66.1c-.2-.9-.8-1.3-2.1-1.3s-1.9.4-2.1,1.3h4.1Z"/>
        <path class="cls-2" d="M220,66.7c0,2.1-1.2,3.1-3.6,3.1s-3.7-1-3.7-3.1,1.2-3.1,3.7-3.1h2.1v-2.5h1.5v5.6ZM218.5,66.7v-1.9h-2.1c-.8,0-1.4.2-1.7.5-.3.3-.4.8-.4,1.4s.1,1.1.4,1.4c.4.3.9.5,1.7.5s1.4-.2,1.7-.5c.3-.3.4-.8.4-1.4"/>
        <path class="cls-2" d="M228.4,69.8h-3.6c-2.4,0-3.7-1-3.7-3.1s1.2-3.1,3.7-3.1,3.6,1,3.6,3.1v.6h-5.7c.2.9.8,1.3,2.1,1.3h3.6v1.2ZM226.9,66.1c-.2-.9-.8-1.3-2.1-1.3s-1.9.4-2.1,1.3h4.1Z"/>
        <path class="cls-2" d="M233.6,64.8c-1,0-1.6.1-2,.3-.3.2-.4.4-.4.7v4h-1.5v-4c0-1.5,1.3-2.3,3.9-2.3v1.2Z"/>
        <path class="cls-2" d="M240.8,67.9c0,1.2-1,1.9-3.2,1.9s-2.1-.2-2.6-.7c-.4-.3-.6-.7-.6-1.2s.2-.9.6-1.2c.5-.4,1.4-.7,2.6-.7s1.2,0,1.4-.2c.1,0,.2-.2.2-.4s0-.3-.2-.4c-.2-.2-.7-.2-1.4-.2s-1.2,0-1.4.2c-.1,0-.2.2-.2.4h-1.5c0-.5.2-.9.6-1.2.5-.4,1.4-.7,2.6-.7,2.1,0,3.2.6,3.2,1.9v2.5ZM239.2,67.9v-.8c-.5.1-1,.2-1.6.2s-1.2,0-1.4.2c-.1.1-.2.2-.2.4s0,.3.2.4c.2.2.7.2,1.4.2s1.2,0,1.4-.2c.1,0,.2-.2.2-.4"/>
        <path class="cls-2" d="M249,67.9c-.4,1.3-1.6,1.9-3.5,1.9s-3.7-1-3.7-3.1,1.2-3.1,3.7-3.1,3.1.6,3.5,1.9h-1.6c-.3-.5-.9-.7-1.8-.7s-1.4.2-1.7.5c-.3.3-.4.8-.4,1.4s.1,1.1.4,1.4c.3.4.9.6,1.7.6s1.5-.2,1.8-.7h1.6Z"/>
        <path class="cls-2" d="M251.3,62.3h-1.5v-1.2h1.5v1.2ZM249.7,63.6h1.5v6.2h-1.5v-6.2Z"/>
        <path class="cls-2" d="M259.6,66.7c0,2.1-1.2,3.1-3.7,3.1s-3.6-1-3.6-3.1,1.2-3.1,3.6-3.1,3.7,1,3.7,3.1M258.6,62.5h-.7c0,.1-4.4.8-4.4.8l-.3-1.2h.8c0-.1,4.4-.8,4.4-.8l.3,1.2ZM258,66.7c0-.6-.1-1.1-.4-1.4-.3-.4-.9-.5-1.7-.5s-1.4.2-1.7.5c-.3.3-.4.7-.4,1.4s.1,1.1.4,1.4c.3.3.9.5,1.7.5s1.4-.2,1.7-.5c.3-.3.4-.8.4-1.4"/>
        <path class="cls-2" d="M268.3,69.8h-1.5v-3.1c0-.6-.1-1.1-.4-1.4-.3-.4-.9-.5-1.7-.5s-1.4.2-1.7.5c-.3.3-.4.7-.4,1.4v3.1h-1.5v-3.1c0-2.1,1.2-3.1,3.7-3.1s3.6,1,3.6,3.1v3.1Z"/>
        <polygon class="cls-2" points="279.7 69.8 273.7 69.8 273.7 61.1 279.7 61.1 279.7 62.3 275.3 62.3 275.3 64.8 278.9 64.8 278.9 66.1 275.3 66.1 275.3 68.6 279.7 68.6 279.7 69.8"/>
        <path class="cls-2" d="M286.7,65.4h-1.5c0-.2,0-.3-.2-.4-.2-.2-.7-.2-1.4-.2s-1.2,0-1.4.2c-.1,0-.2.2-.2.4s.1.4.3.5c.2,0,.7.1,1.4.2.9,0,1.6.1,2,.3.7.3,1.1.8,1.1,1.5,0,1.3-1,1.9-3.2,1.9s-3.1-.6-3.1-1.9h1.5c0,.2,0,.3.2.4.2.2.7.2,1.4.2s1.2,0,1.4-.2c.1,0,.2-.2.2-.4s0-.4-.3-.5c-.2,0-.7-.1-1.4-.2-.9,0-1.6-.2-2-.3-.8-.3-1.1-.8-1.1-1.5,0-1.2,1-1.9,3.1-1.9s3.2.6,3.2,1.9"/>
        <path class="cls-2" d="M295.1,66.7c0,2.1-1.2,3.1-3.7,3.1h-2.1v2.5h-1.5v-5.6c0-2.1,1.2-3.1,3.6-3.1s3.7,1,3.7,3.1M293.5,66.7c0-.6-.1-1.1-.4-1.4-.3-.4-.9-.5-1.7-.5s-1.4.2-1.7.5c-.3.3-.4.7-.4,1.4v1.9h2.1c.8,0,1.4-.2,1.7-.5.3-.3.4-.8.4-1.4"/>
        <path class="cls-2" d="M302.4,67.9c0,1.2-1.1,1.9-3.2,1.9s-2.1-.2-2.6-.7c-.4-.3-.5-.7-.5-1.2s.2-.9.5-1.2c.5-.4,1.4-.7,2.6-.7s1.2,0,1.4-.2c.1,0,.2-.2.2-.4s0-.3-.2-.4c-.2-.2-.7-.2-1.4-.2s-1.2,0-1.4.2c-.1,0-.2.2-.2.4h-1.5c0-.5.2-.9.5-1.2.5-.4,1.4-.7,2.6-.7,2.1,0,3.2.6,3.2,1.9v2.5ZM300.9,67.9v-.8c-.5.1-1,.2-1.6.2s-1.2,0-1.4.2c-.1.1-.2.2-.2.4s0,.3.2.4c.2.2.7.2,1.4.2s1.2,0,1.4-.2c.1,0,.2-.2.2-.4"/>
        <path class="cls-2" d="M311.2,61.9l-.5.5c-.6.5-1.2.8-1.9.8s-1.1-.2-1.9-.5c-.5-.2-.9-.3-1.1-.3s-.5.1-.8.4l-.5.5-1.2-.8.5-.5c.6-.5,1.2-.8,1.9-.8s1.1.2,1.8.5c.6.2.9.4,1.1.4s.5-.1.8-.4l.5-.5,1.2.8ZM310.9,69.8h-1.5v-3.1c0-.6-.1-1.1-.4-1.4-.3-.4-.9-.5-1.7-.5s-1.4.2-1.7.5c-.3.3-.4.7-.4,1.4v3.1h-1.5v-3.1c0-2.1,1.2-3.1,3.6-3.1s3.7,1,3.7,3.1v3.1Z"/>
        <path class="cls-2" d="M319.4,66.7c0,2.1-1.2,3.1-3.7,3.1s-3.7-1-3.7-3.1,1.2-3.1,3.7-3.1,3.7,1,3.7,3.1M317.9,66.7c0-.6-.1-1.1-.4-1.4-.3-.4-.9-.5-1.7-.5s-1.4.2-1.7.5c-.3.3-.4.7-.4,1.4s.1,1.1.4,1.4c.3.3.9.5,1.7.5s1.4-.2,1.7-.5c.3-.3.4-.7.4-1.4"/>
        <path class="cls-2" d="M324.5,69.8c-2.6,0-3.9-.7-3.9-2.3v-6.4h1.5v6.4c0,.3.1.6.4.7.4.2,1,.3,2,.3v1.2Z"/>
        <path class="cls-2" d="M331.4,67.9c0,1.2-1.1,1.9-3.2,1.9s-2.1-.2-2.6-.7c-.4-.3-.5-.7-.5-1.2s.2-.9.5-1.2c.5-.4,1.4-.7,2.6-.7s1.2,0,1.4-.2c.1,0,.2-.2.2-.4s0-.3-.2-.4c-.2-.2-.7-.2-1.4-.2s-1.2,0-1.4.2c-.1,0-.2.2-.2.4h-1.5c0-.5.2-.9.5-1.2.5-.4,1.4-.7,2.6-.7,2.1,0,3.2.6,3.2,1.9v2.5ZM329.9,67.9v-.8c-.5.1-1,.2-1.6.2s-1.2,0-1.4.2c-.1.1-.2.2-.2.4s0,.3.2.4c.2.2.7.2,1.4.2s1.2,0,1.4-.2c.1,0,.2-.2.2-.4"/>
        <path class="cls-2" d="M205.1,78.4c0,2.1-1.2,3.1-3.7,3.1s-3.7-1.1-3.7-3.1,1.2-3.1,3.7-3.1h2.1v-2.4h1.6v5.6ZM203.6,78.4v-1.9h-2.1c-.8,0-1.4.2-1.7.5-.3.3-.4.7-.4,1.4s.1,1.1.4,1.4c.3.3.9.5,1.7.5s1.4-.2,1.7-.5c.3-.3.4-.7.4-1.4"/>
        <path class="cls-2" d="M213.5,81.5h-3.6c-2.4,0-3.7-1-3.7-3.1s1.2-3.1,3.7-3.1,3.6,1.1,3.6,3.1v.6h-5.7c.2.9.9,1.3,2.1,1.3h3.6v1.2ZM211.9,77.8c-.2-.9-.8-1.3-2.1-1.3s-1.9.4-2.1,1.3h4.2Z"/>
        <path class="cls-2" d="M222.6,78.4c0,2.1-1.2,3.1-3.7,3.1v-1.2c.8,0,1.4-.2,1.7-.5.3-.3.4-.7.4-1.4v-5.6h1.5v5.6Z"/>
        <path class="cls-2" d="M231.2,78.4c0,2.1-1.2,3.1-3.7,3.1s-3.6-1-3.6-3.1v-3.1h1.5v3.1c0,.6.1,1.1.4,1.4.3.3.9.5,1.7.5s1.4-.2,1.7-.5c.3-.3.4-.7.4-1.4v-3.1h1.5v3.1Z"/>
        <path class="cls-2" d="M239.6,81.7c0,1.5-1.2,2.3-3.6,2.3h-2.9v-1.2h2.9c.9,0,1.5-.1,1.8-.4.2-.1.3-.4.3-.7v-.2h-2.1c-2.4,0-3.7-1-3.7-3.1s1.2-3.1,3.7-3.1,3.6,1.1,3.6,3.1v3.3ZM238.1,80.3v-1.9c0-.6-.1-1.1-.4-1.4-.3-.4-.9-.5-1.7-.5s-1.4.2-1.7.5c-.3.3-.4.7-.4,1.4s.1,1.1.4,1.4c.3.3.9.5,1.7.5h2.1Z"/>
        <path class="cls-2" d="M247.1,79.7c0,1.2-1.1,1.9-3.2,1.9s-2.1-.2-2.6-.7c-.4-.3-.5-.7-.5-1.2s.2-.9.5-1.2c.5-.4,1.4-.7,2.6-.7s1.2,0,1.4-.2c.1,0,.2-.2.2-.4s0-.3-.2-.4c-.2-.1-.7-.2-1.4-.2s-1.2,0-1.4.2c-.1.1-.2.2-.2.4h-1.5c0-.5.2-.9.5-1.2.5-.4,1.4-.7,2.6-.7,2.1,0,3.2.6,3.2,1.9v2.5ZM245.6,79.7v-.8c-.4.1-1,.2-1.6.2s-1.2,0-1.4.2c-.1,0-.2.2-.2.4s0,.3.2.4c.2.2.7.2,1.4.2s1.2,0,1.4-.2c.1,0,.2-.2.2-.4"/>
        <path class="cls-2" d="M255.4,78.4c0,2.1-1.2,3.1-3.6,3.1s-3.7-1.1-3.7-3.1,1.2-3.1,3.7-3.1h2.1v-2.4h1.5v5.6ZM253.9,78.4v-1.9h-2.1c-.8,0-1.4.2-1.7.5-.3.3-.4.7-.4,1.4s.1,1.1.4,1.4c.3.3.9.5,1.7.5s1.4-.2,1.7-.5c.3-.3.4-.7.4-1.4"/>
        <path class="cls-2" d="M263.8,78.4c0,2.1-1.2,3.1-3.6,3.1s-3.7-1-3.7-3.1,1.2-3.1,3.7-3.1,3.6,1.1,3.6,3.1M262.2,78.4c0-.6-.1-1.1-.4-1.4-.3-.4-.9-.5-1.7-.5s-1.4.2-1.7.5c-.3.3-.4.7-.4,1.4s.1,1.1.4,1.4c.3.3.9.5,1.7.5s1.4-.2,1.7-.5c.3-.3.4-.7.4-1.4"/>
        <path class="cls-2" d="M268.9,76.5c-1,0-1.6,0-2,.3-.2.2-.4.4-.4.7v4h-1.5v-4c0-1.5,1.3-2.3,3.9-2.3v1.2Z"/>
        <path class="cls-2" d="M339.3,76.5c-1,0-1.6,0-2,.3-.2.2-.4.4-.4.7v4h-1.5v-4c0-1.5,1.3-2.3,3.9-2.3v1.2Z"/>
        <path class="cls-2" d="M277,81.5h-3.6c-2.5,0-3.7-1-3.7-3.1s1.2-3.1,3.7-3.1,3.6,1.1,3.6,3.1v.6h-5.7c.2.9.9,1.3,2.1,1.3h3.6v1.2ZM275.4,77.8c-.2-.9-.8-1.3-2-1.3s-1.9.4-2.1,1.3h4.1Z"/>
        <path class="cls-2" d="M284.5,77.2h-1.5c0-.2,0-.3-.2-.4-.2-.1-.7-.2-1.4-.2s-1.2,0-1.4.2c-.1,0-.2.2-.2.4s0,.4.3.5c.2,0,.7.1,1.4.2.9,0,1.5.1,2,.3.7.3,1.1.8,1.1,1.5,0,1.2-1,1.9-3.1,1.9s-3.2-.6-3.2-1.9h1.5c0,.2,0,.3.2.4.2.2.7.2,1.4.2s1.2,0,1.4-.2c.1,0,.2-.2.2-.4s0-.4-.3-.5c-.2,0-.7-.2-1.4-.2-.9,0-1.6-.2-2-.3-.7-.3-1.1-.8-1.1-1.5,0-1.2,1.1-1.9,3.2-1.9s3.1.6,3.1,1.9"/>
        <path class="cls-2" d="M297,78.4c0,2.1-1.2,3.1-3.7,3.1s-3.6-1.1-3.6-3.1,1.2-3.1,3.6-3.1h2.1v-2.4h1.5v5.6ZM295.4,78.4v-1.9h-2.1c-.8,0-1.4.2-1.7.5-.3.3-.4.7-.4,1.4s.1,1.1.4,1.4c.3.3.9.5,1.7.5s1.4-.2,1.7-.5c.3-.3.4-.7.4-1.4"/>
        <path class="cls-2" d="M305.4,81.5h-3.6c-2.4,0-3.7-1-3.7-3.1s1.2-3.1,3.7-3.1,3.6,1.1,3.6,3.1v.6h-5.7c.1.9.8,1.3,2.1,1.3h3.6v1.2ZM303.8,77.8c-.2-.9-.8-1.3-2.1-1.3s-1.9.4-2.1,1.3h4.1Z"/>
        <path class="cls-2" d="M318.1,81.5h-1.6v-3.1h-4.2v3.1h-1.5v-5.6c0-2.1,1.2-3.1,3.7-3.1s3.7,1,3.7,3.1v5.6ZM316.6,77.2v-1.2c0-.6-.1-1.1-.4-1.4-.3-.4-.9-.5-1.7-.5s-1.4.2-1.7.5c-.3.3-.4.8-.4,1.4v1.2h4.2Z"/>
        <path class="cls-2" d="M326.7,81.5h-7.3v-.6c0-2.1,1.2-3.1,3.7-3.1s1.9-.4,2.1-1.3h-5.7v-1.2h7.3v.6c0,2.1-1.2,3.1-3.7,3.1s-1.9.4-2.1,1.3h5.7v1.2Z"/>
        <path class="cls-2" d="M334,79.7c0,1.2-1.1,1.9-3.2,1.9s-2.1-.2-2.6-.7c-.4-.3-.5-.7-.5-1.2s.2-.9.5-1.2c.5-.4,1.4-.7,2.6-.7s1.2,0,1.4-.2c.1,0,.2-.2.2-.4s0-.3-.2-.4c-.2-.1-.7-.2-1.4-.2s-1.2,0-1.4.2c-.1.1-.2.2-.2.4h-1.5c0-.5.2-.9.5-1.2.5-.4,1.4-.7,2.6-.7,2.1,0,3.2.6,3.2,1.9v2.5ZM332.4,79.7v-.8c-.5.1-1,.2-1.6.2s-1.2,0-1.4.2c-.1,0-.2.2-.2.4s0,.3.2.4c.2.2.7.2,1.4.2s1.2,0,1.4-.2c.1,0,.2-.2.2-.4"/>
        <path class="cls-2" d="M204.8,94.8h-1.5v-1.5c0-.6-.2-1-.6-1.3-.3-.2-.8-.3-1.6-.3h-1.5v3.1h-1.5v-8.7h3.1c2.5,0,3.7.9,3.7,2.8s-.4,1.7-1.1,2.2c.7.5,1.1,1.2,1.1,2.2v1.5ZM203.2,88.9c0-.6-.2-1-.6-1.3-.3-.2-.8-.3-1.6-.3h-1.5v3.1h1.5c.7,0,1.3-.1,1.6-.3.4-.2.6-.7.6-1.3"/>
        <path class="cls-2" d="M213.1,94.8h-3.6c-2.5,0-3.7-1-3.7-3.1s1.2-3.1,3.7-3.1,3.6,1,3.6,3.1v.6h-5.7c.2.9.8,1.3,2.1,1.3h3.6v1.2ZM211.5,91.1c-.2-.9-.8-1.3-2.1-1.3s-1.9.4-2.1,1.3h4.1Z"/>
        <path class="cls-2" d="M221.6,94.8h-1.6v-3.1c0-.6-.1-1.1-.4-1.4-.3-.4-.9-.5-1.7-.5s-1.4.2-1.7.5c-.3.3-.4.7-.4,1.4v3.1h-1.5v-8.7h1.5v2.9c.6-.3,1.3-.4,2.1-.4,2.4,0,3.6,1,3.6,3.1v3.1Z"/>
        <path class="cls-2" d="M229,92.9c0,1.2-1.1,1.9-3.2,1.9s-2.1-.2-2.6-.7c-.4-.3-.5-.7-.5-1.2s.2-.9.5-1.2c.5-.4,1.4-.7,2.6-.7s1.2,0,1.4-.2c.1,0,.2-.2.2-.4s0-.3-.2-.4c-.2-.2-.7-.2-1.4-.2s-1.2,0-1.4.2c-.1,0-.2.2-.2.4h-1.5c0-.5.2-.9.5-1.2.5-.4,1.4-.7,2.6-.7,2.1,0,3.2.6,3.2,1.9v2.5ZM227.4,92.9v-.8c-.5.1-1,.2-1.6.2s-1.2,0-1.4.2c-.1,0-.2.2-.2.4s0,.3.2.4c.2.2.7.2,1.4.2s1.2,0,1.4-.2c.1,0,.2-.2.2-.4"/>
        <path class="cls-2" d="M237.5,91.7c0,2.1-1.2,3.1-3.7,3.1s-3.6-1-3.6-3.1v-5.6h1.5v2.4h2.1c2.4,0,3.7,1,3.7,3.1M235.9,91.7c0-.6-.1-1.1-.4-1.4-.3-.4-.9-.5-1.7-.5h-2.1v1.9c0,.6.1,1.1.4,1.4.3.4.9.5,1.7.5s1.4-.2,1.7-.5c.3-.3.4-.7.4-1.4"/>
        <path class="cls-2" d="M239.8,87.3h-1.5v-1.2h1.5v1.2ZM238.3,88.5h1.5v6.2h-1.5v-6.2Z"/>
        <path class="cls-2" d="M245,94.8c-2.6,0-3.9-.8-3.9-2.2v-6.4h1.5v6.4c0,.3.1.6.4.7.4.2,1,.3,2,.3v1.2Z"/>
        <path class="cls-2" d="M247.1,87.3h-1.5v-1.2h1.5v1.2ZM245.6,88.5h1.5v6.2h-1.5v-6.2Z"/>
        <path class="cls-2" d="M252.3,94.8c-2.6,0-3.9-.8-3.9-2.3v-6.4h1.5v2.4h2.4v1.2h-2.4v2.8c0,.3.1.6.4.7.4.2,1,.3,2,.3v1.2Z"/>
        <path class="cls-2" d="M259.5,92.9c0,1.2-1.1,1.9-3.2,1.9s-2.1-.2-2.6-.7c-.4-.3-.5-.7-.5-1.2s.2-.9.5-1.2c.5-.4,1.4-.7,2.6-.7s1.2,0,1.4-.2c.2,0,.2-.2.2-.4s0-.3-.2-.4c-.2-.2-.7-.2-1.4-.2s-1.2,0-1.4.2c-.1,0-.2.2-.2.4h-1.5c0-.5.2-.9.5-1.2.5-.4,1.4-.7,2.6-.7,2.1,0,3.2.6,3.2,1.9v2.5ZM257.9,92.9v-.8c-.5.1-1,.2-1.6.2s-1.2,0-1.4.2c-.1,0-.2.2-.2.4s0,.3.2.4c.2.2.7.2,1.4.2s1.2,0,1.4-.2c.2,0,.2-.2.2-.4"/>
        <path class="cls-2" d="M267.8,91.7c0,2.1-1.2,3.1-3.6,3.1s-3.7-1-3.7-3.1,1.2-3.1,3.7-3.1h2.1v-2.4h1.5v5.6ZM266.3,91.7v-1.9h-2.1c-.8,0-1.4.2-1.7.5-.3.3-.4.8-.4,1.4s.1,1.1.4,1.4c.3.3.9.5,1.7.5s1.4-.2,1.7-.5c.3-.3.4-.8.4-1.4"/>
        <path class="cls-2" d="M276.1,91.7c0,2.1-1.2,3.1-3.6,3.1s-3.7-1-3.7-3.1,1.2-3.1,3.7-3.1,3.6,1,3.6,3.1M274.6,91.7c0-.6-.1-1.1-.4-1.4-.3-.4-.9-.5-1.7-.5s-1.4.2-1.7.5c-.3.3-.4.7-.4,1.4s.1,1.1.4,1.4c.3.3.9.5,1.7.5s1.4-.2,1.7-.5c.3-.3.4-.7.4-1.4"/>
        <path class="cls-2" d="M283.6,90.4h-1.5c0-.2,0-.3-.2-.4-.2-.2-.7-.2-1.4-.2s-1.2,0-1.4.2c-.2,0-.2.2-.2.4s0,.4.3.5c.2,0,.6.1,1.4.2.9,0,1.6.2,2,.3.7.3,1.1.8,1.1,1.5,0,1.2-1.1,1.9-3.2,1.9s-3.2-.6-3.2-1.9h1.5c0,.2,0,.3.2.4.2.2.7.2,1.4.2s1.2,0,1.4-.2c.1,0,.2-.2.2-.4s0-.4-.3-.5c-.2,0-.7-.2-1.4-.2-.9,0-1.6-.2-2-.3-.8-.3-1.1-.8-1.1-1.5,0-1.2,1-1.9,3.2-1.9s3.2.6,3.2,1.9"/>
        <rect class="cls-2" x="193.3" y="61.4" width="1.1" height="33.5"/>
      </g>
    </g>
  </g>
</svg>