<svg xmlns="http://www.w3.org/2000/svg" xmlns:xlink="http://www.w3.org/1999/xlink" viewBox="0 0 81.33 12.59" width="170" height="40"><defs><style>svg{fill:rgba(255,255,255,.8);}</style><clipPath id="clip-path" transform="translate(0 0)"><rect class="cls-juegoresponsable-1" width="81.33" height="12.59"></rect></clipPath></defs><g id="Capa_2" data-name="Capa 2"><g id="Capa_1-2" data-name="Capa 1"><g><g class="cls-juegoresponsable-2"><g class="cls-juegoresponsable-2"><path class="cls-juegoresponsable-3" d="M8.35,7.17a1.17,1.17,0,0,1-.3.91,1.27,1.27,0,0,1-.9.27,1.31,1.31,0,0,1-.52-.09A.87.87,0,0,1,6.31,8a1,1,0,0,1-.16-.37A2.14,2.14,0,0,1,6.1,7.2V7h.74v.12a1.13,1.13,0,0,0,.07.47.27.27,0,0,0,.28.15.29.29,0,0,0,.29-.15,1.33,1.33,0,0,0,.07-.47V4.32h.8Z" transform="translate(0 0)"></path><path class="cls-juegoresponsable-3" d="M9.62,7.09a2.13,2.13,0,0,0,0,.27.71.71,0,0,0,.07.22.4.4,0,0,0,.15.14.39.39,0,0,0,.23,0,.41.41,0,0,0,.23,0,.32.32,0,0,0,.14-.14.52.52,0,0,0,.07-.22,1.14,1.14,0,0,0,0-.27V4.32h.8V7.09a1.58,1.58,0,0,1-.1.62A.91.91,0,0,1,11,8.1a.94.94,0,0,1-.4.2,2.42,2.42,0,0,1-.47,0,2.52,2.52,0,0,1-.48,0,1,1,0,0,1-.4-.18.92.92,0,0,1-.28-.38,1.73,1.73,0,0,1-.11-.65V4.32h.8Z" transform="translate(0 0)"></path><polygon class="cls-juegoresponsable-3" points="14.08 4.97 12.66 4.97 12.66 5.91 13.99 5.91 13.99 6.56 12.66 6.56 12.66 7.63 14.13 7.63 14.13 8.29 11.86 8.29 11.86 4.32 14.08 4.32 14.08 4.97"></polygon><path class="cls-juegoresponsable-3" d="M16.27,5.27a1.43,1.43,0,0,0-.08-.22,1.07,1.07,0,0,0-.14-.16.37.37,0,0,0-.21-.06.44.44,0,0,0-.42.32,3.32,3.32,0,0,0-.13,1.07,6.11,6.11,0,0,0,0,.64,2.18,2.18,0,0,0,.08.5.7.7,0,0,0,.16.31.39.39,0,0,0,.28.1l.16,0a.61.61,0,0,0,.16-.12.77.77,0,0,0,.13-.2.78.78,0,0,0,.05-.28v-.4h-.53V6.15H17.1V8.29h-.58V7.92h0a.89.89,0,0,1-.34.33,1.22,1.22,0,0,1-.49.1,1.33,1.33,0,0,1-.6-.13.94.94,0,0,1-.36-.4,2.11,2.11,0,0,1-.17-.65,8.17,8.17,0,0,1,0-.91,4.55,4.55,0,0,1,.07-.88,1.62,1.62,0,0,1,.22-.63.94.94,0,0,1,.41-.38,1.35,1.35,0,0,1,.64-.13,1.19,1.19,0,0,1,.94.33,1.35,1.35,0,0,1,.29.93h-.77a1.79,1.79,0,0,0,0-.23" transform="translate(0 0)"></path><path class="cls-juegoresponsable-3" d="M19.38,4.32l1.05,4H19.6l-.18-.84H18.36l-.18.84h-.84l1.05-4Zm-.1,2.47L18.89,5h0L18.5,6.79Z" transform="translate(0 0)"></path><path class="cls-juegoresponsable-3" d="M23.64,5a.4.4,0,0,0-.38-.2.41.41,0,0,0-.25.08.58.58,0,0,0-.15.26,2.39,2.39,0,0,0-.08.47c0,.2,0,.44,0,.72a7.18,7.18,0,0,0,0,.73,1.43,1.43,0,0,0,.1.43.33.33,0,0,0,.16.2.4.4,0,0,0,.22,0,.64.64,0,0,0,.2,0,.38.38,0,0,0,.16-.15.87.87,0,0,0,.1-.3,2.49,2.49,0,0,0,0-.52h.8a3,3,0,0,1-.05.61,1.41,1.41,0,0,1-.18.51.91.91,0,0,1-.39.33,1.32,1.32,0,0,1-.64.13,1.48,1.48,0,0,1-.72-.15.93.93,0,0,1-.4-.41A1.83,1.83,0,0,1,22,7.14a7.28,7.28,0,0,1,0-.84,7.21,7.21,0,0,1,0-.83,1.77,1.77,0,0,1,.19-.65,1.1,1.1,0,0,1,.4-.43,1.48,1.48,0,0,1,.72-.15,1.44,1.44,0,0,1,.68.14,1,1,0,0,1,.37.35,1.25,1.25,0,0,1,.15.46,4,4,0,0,1,0,.47h-.8a1.58,1.58,0,0,0-.1-.63" transform="translate(0 0)"></path><path class="cls-juegoresponsable-3" d="M25,5.47a1.6,1.6,0,0,1,.18-.65,1.06,1.06,0,0,1,.41-.43,1.44,1.44,0,0,1,.71-.15,1.48,1.48,0,0,1,.72.15,1.06,1.06,0,0,1,.41.43,1.77,1.77,0,0,1,.18.65,7.1,7.1,0,0,1,0,.83,7.28,7.28,0,0,1,0,.84,1.83,1.83,0,0,1-.18.65A.9.9,0,0,1,27,8.2a1.48,1.48,0,0,1-.72.15,1.44,1.44,0,0,1-.71-.15.9.9,0,0,1-.41-.41A1.64,1.64,0,0,1,25,7.14a7.16,7.16,0,0,1,0-.84,7,7,0,0,1,0-.83M25.76,7a2.27,2.27,0,0,0,.08.46.53.53,0,0,0,.17.25.42.42,0,0,0,.28.08.43.43,0,0,0,.29-.08.53.53,0,0,0,.17-.25A2.27,2.27,0,0,0,26.83,7c0-.18,0-.41,0-.68s0-.49,0-.68a2.29,2.29,0,0,0-.08-.45.51.51,0,0,0-.17-.26.5.5,0,0,0-.29-.08.49.49,0,0,0-.28.08.51.51,0,0,0-.17.26,2.29,2.29,0,0,0-.08.45c0,.19,0,.42,0,.68s0,.5,0,.68" transform="translate(0 0)"></path><polygon class="cls-juegoresponsable-3" points="30.01 7.04 30.02 7.04 30.02 4.32 30.75 4.32 30.75 8.29 29.84 8.29 28.86 5.51 28.85 5.51 28.85 8.29 28.12 8.29 28.12 4.32 29.04 4.32 30.01 7.04"></polygon><path class="cls-juegoresponsable-3" d="M35.45,4.32a1.13,1.13,0,0,1,.78.25,1,1,0,0,1,.28.77,1.22,1.22,0,0,1-.16.65.77.77,0,0,1-.5.33h0a.69.69,0,0,1,.43.19.86.86,0,0,1,.18.49c0,.07,0,.15,0,.24a2.62,2.62,0,0,1,0,.29,4.14,4.14,0,0,0,0,.48.3.3,0,0,0,.14.23v0H35.8a.36.36,0,0,1-.08-.2,1.5,1.5,0,0,1,0-.22l0-.76a.58.58,0,0,0-.11-.37.43.43,0,0,0-.36-.13h-.43V8.29H34v-4Zm-.34,1.73a.64.64,0,0,0,.44-.13.61.61,0,0,0,.16-.46.49.49,0,0,0-.56-.55h-.38V6.05Z" transform="translate(0 0)"></path><polygon class="cls-juegoresponsable-3" points="39.28 4.97 37.86 4.97 37.86 5.91 39.2 5.91 39.2 6.56 37.86 6.56 37.86 7.63 39.34 7.63 39.34 8.29 37.06 8.29 37.06 4.32 39.28 4.32 39.28 4.97"></polygon><path class="cls-juegoresponsable-3" d="M40.38,7.16a2,2,0,0,0,0,.26.42.42,0,0,0,.09.19.4.4,0,0,0,.16.12.65.65,0,0,0,.26,0,.57.57,0,0,0,.33-.11.45.45,0,0,0,.15-.37.73.73,0,0,0,0-.23.36.36,0,0,0-.12-.18A.93.93,0,0,0,41,6.74a2.45,2.45,0,0,0-.34-.13,3.34,3.34,0,0,1-.46-.2,1.16,1.16,0,0,1-.32-.24.92.92,0,0,1-.19-.33,1.44,1.44,0,0,1-.06-.43A1.09,1.09,0,0,1,40,4.53a1.33,1.33,0,0,1,.9-.29,1.88,1.88,0,0,1,.49.06,1,1,0,0,1,.39.19.85.85,0,0,1,.26.33,1.22,1.22,0,0,1,.09.49v.11h-.77a.78.78,0,0,0-.1-.44.35.35,0,0,0-.33-.15.48.48,0,0,0-.22,0,.3.3,0,0,0-.14.1.36.36,0,0,0-.08.15.91.91,0,0,0,0,.17.59.59,0,0,0,.07.31.74.74,0,0,0,.34.23l.61.27a1.91,1.91,0,0,1,.38.2,1.29,1.29,0,0,1,.23.24,1.11,1.11,0,0,1,.12.27,1.72,1.72,0,0,1,0,.34,1.06,1.06,0,0,1-.37.91,1.6,1.6,0,0,1-1,.29,1.33,1.33,0,0,1-1-.3,1.16,1.16,0,0,1-.29-.84V7.05h.8Z" transform="translate(0 0)"></path><path class="cls-juegoresponsable-3" d="M44,4.32a1.13,1.13,0,0,1,.51.1.94.94,0,0,1,.52.65,1.61,1.61,0,0,1,.06.44A1.44,1.44,0,0,1,45,6a.92.92,0,0,1-.26.37,1,1,0,0,1-.4.22,1.61,1.61,0,0,1-.51.07h-.43V8.29h-.8v-4Zm-.25,1.79A.56.56,0,0,0,44.16,6a.61.61,0,0,0,.15-.45.7.7,0,0,0-.13-.46.53.53,0,0,0-.43-.15h-.33v1.2Z" transform="translate(0 0)"></path><path class="cls-juegoresponsable-3" d="M45.46,5.47a2,2,0,0,1,.18-.65,1.13,1.13,0,0,1,.41-.43,1.8,1.8,0,0,1,1.44,0,1.1,1.1,0,0,1,.4.43,1.77,1.77,0,0,1,.19.65,7.1,7.1,0,0,1,0,.83,7.28,7.28,0,0,1,0,.84,1.83,1.83,0,0,1-.19.65.93.93,0,0,1-.4.41,1.8,1.8,0,0,1-1.44,0,1,1,0,0,1-.41-.41,2.06,2.06,0,0,1-.18-.65,7.28,7.28,0,0,1,0-.84,7.1,7.1,0,0,1,0-.83M46.24,7a1.74,1.74,0,0,0,.08.46.52.52,0,0,0,.16.25.57.57,0,0,0,.58,0,.52.52,0,0,0,.16-.25A1.74,1.74,0,0,0,47.3,7c0-.18,0-.41,0-.68s0-.49,0-.68a1.73,1.73,0,0,0-.08-.45.51.51,0,0,0-.16-.26.57.57,0,0,0-.58,0,.51.51,0,0,0-.16.26,1.73,1.73,0,0,0-.08.45c0,.19,0,.42,0,.68s0,.5,0,.68" transform="translate(0 0)"></path><polygon class="cls-juegoresponsable-3" points="50.48 7.04 50.49 7.04 50.49 4.32 51.23 4.32 51.23 8.29 50.31 8.29 49.34 5.51 49.33 5.51 49.33 8.29 48.59 8.29 48.59 4.32 49.51 4.32 50.48 7.04"></polygon><path class="cls-juegoresponsable-3" d="M52.43,7.16a1.06,1.06,0,0,0,0,.26.41.41,0,0,0,.08.19.43.43,0,0,0,.17.12.6.6,0,0,0,.25,0,.52.52,0,0,0,.33-.11.45.45,0,0,0,.15-.37.75.75,0,0,0,0-.23.57.57,0,0,0-.12-.18.93.93,0,0,0-.22-.14l-.34-.13a2.88,2.88,0,0,1-.46-.2,1.4,1.4,0,0,1-.33-.24,1.09,1.09,0,0,1-.19-.33,1.44,1.44,0,0,1-.06-.43A1.1,1.1,0,0,1,52,4.53a1.33,1.33,0,0,1,.9-.29,1.88,1.88,0,0,1,.49.06,1,1,0,0,1,.39.19,1,1,0,0,1,.26.33,1.22,1.22,0,0,1,.09.49v.11h-.77a.78.78,0,0,0-.1-.44.37.37,0,0,0-.33-.15.53.53,0,0,0-.23,0,.45.45,0,0,0-.14.1.35.35,0,0,0-.07.15.88.88,0,0,0,0,.17.59.59,0,0,0,.08.31.7.7,0,0,0,.33.23l.62.27a1.58,1.58,0,0,1,.37.2,1,1,0,0,1,.23.24.66.66,0,0,1,.12.27,1.67,1.67,0,0,1,0,.34,1.09,1.09,0,0,1-.37.91,1.6,1.6,0,0,1-1,.29,1.31,1.31,0,0,1-1-.3,1.12,1.12,0,0,1-.29-.84V7.05h.8Z" transform="translate(0 0)"></path><path class="cls-juegoresponsable-3" d="M56.43,4.32l1,4h-.84l-.18-.84H55.4l-.18.84h-.83l1-4Zm-.11,2.47L55.94,5h0l-.39,1.78Z" transform="translate(0 0)"></path><path class="cls-juegoresponsable-3" d="M59.09,4.32a1.66,1.66,0,0,1,.46,0,.82.82,0,0,1,.35.17.76.76,0,0,1,.24.31,1.32,1.32,0,0,1,.08.47,1,1,0,0,1-.15.56.74.74,0,0,1-.45.31h0a.8.8,0,0,1,.53.29,1,1,0,0,1,.19.63,1.63,1.63,0,0,1-.06.45.91.91,0,0,1-.21.37,1,1,0,0,1-.38.25,1.65,1.65,0,0,1-.59.1H57.75v-4ZM58.78,6a.8.8,0,0,0,.49-.12.5.5,0,0,0,.15-.41.52.52,0,0,0-.14-.4.73.73,0,0,0-.44-.11h-.29V6Zm.09,1.75a.81.81,0,0,0,.46-.13.54.54,0,0,0,.18-.47.79.79,0,0,0,0-.29.41.41,0,0,0-.12-.18.47.47,0,0,0-.2-.1.88.88,0,0,0-.24,0h-.35V7.7Z" transform="translate(0 0)"></path><rect class="cls-juegoresponsable-3" x="60.88" y="4.32" width="0.8" height="3.97"></rect><polygon class="cls-juegoresponsable-3" points="62.28 4.32 63.08 4.32 63.08 7.63 64.49 7.63 64.49 8.29 62.28 8.29 62.28 4.32"></polygon><rect class="cls-juegoresponsable-3" x="64.89" y="4.32" width="0.8" height="3.97"></rect><path class="cls-juegoresponsable-3" d="M67.63,4.32a1.47,1.47,0,0,1,.68.13,1,1,0,0,1,.39.39,1.83,1.83,0,0,1,.2.61,6.35,6.35,0,0,1,0,.8,5.78,5.78,0,0,1-.07.9,1.61,1.61,0,0,1-.22.64.89.89,0,0,1-.42.37,1.41,1.41,0,0,1-.66.13H66.32v-4ZM67.48,7.7a.68.68,0,0,0,.34-.08.46.46,0,0,0,.2-.23,1.59,1.59,0,0,0,.1-.44c0-.19,0-.41,0-.68a5.44,5.44,0,0,0,0-.6A1.19,1.19,0,0,0,68,5.25a.59.59,0,0,0-.2-.26.81.81,0,0,0-.37-.08h-.34V7.7Z" transform="translate(0 0)"></path><path class="cls-juegoresponsable-3" d="M71.23,4.32l1,4h-.83l-.18-.84H70.21L70,8.29h-.84l1-4Zm-.1,2.47L70.74,5h0l-.38,1.78Z" transform="translate(0 0)"></path><path class="cls-juegoresponsable-3" d="M73.91,4.32a1.43,1.43,0,0,1,.67.13,1.07,1.07,0,0,1,.4.39,1.62,1.62,0,0,1,.19.61,4.9,4.9,0,0,1,0,.8,5.89,5.89,0,0,1-.06.9,1.78,1.78,0,0,1-.22.64.89.89,0,0,1-.42.37,1.41,1.41,0,0,1-.66.13H72.6v-4ZM73.76,7.7a.68.68,0,0,0,.34-.08.46.46,0,0,0,.2-.23A1.59,1.59,0,0,0,74.4,7c0-.19,0-.41,0-.68a5.44,5.44,0,0,0,0-.6,1.19,1.19,0,0,0-.09-.42A.61.61,0,0,0,74.1,5a.74.74,0,0,0-.36-.08H73.4V7.7Z" transform="translate(0 0)"></path><path class="cls-juegoresponsable-3" d="M79,10.27H2.32V2.32H79ZM81.33,0H0V12.59H81.33V0Z" transform="translate(0 0)"></path></g></g></g></g></g></svg>