<svg width="114" height="32" viewBox="0 0 114 32" fill="none" xmlns="http://www.w3.org/2000/svg">
<g clip-path="url(#clip0_39950_784175)">
<path d="M32.221 28.4001C39.072 28.4001 44.621 22.8511 44.621 16.0001C44.621 9.1491 39.072 3.6001 32.221 3.6001C25.37 3.6001 19.821 9.1491 19.821 16.0001C19.821 22.8511 25.37 28.4001 32.221 28.4001Z" fill="white"/>
<path d="M34.608 22.4377C30.826 23.6984 27.168 24.3184 24.1196 24.3287C25.618 25.8167 27.4986 26.8604 29.5446 27.3461C31.601 27.8317 33.7503 27.7387 35.755 27.0671C39.8883 25.6927 42.7506 22.1587 43.5463 18.0874C41.1593 19.7511 38.08 21.2804 34.5976 22.4377H34.608Z" fill="#CF001C"/>
<path d="M34.7319 18.356L34.4219 19.1H35.0419L34.7319 18.356Z" fill="#CF001C"/>
<path d="M26.3618 18.2732H25.9485V19.4822H26.3618C26.4445 19.4822 26.5272 19.4822 26.6098 19.4512C26.6925 19.4202 26.7648 19.3789 26.8268 19.3272C26.8888 19.2652 26.9405 19.2032 26.9715 19.1206C27.0025 19.0482 27.0232 18.9656 27.0232 18.8726C27.0232 18.7796 27.0025 18.7072 26.9715 18.6246C26.9405 18.5522 26.8888 18.4799 26.8268 18.4179C26.7648 18.3559 26.6925 18.3146 26.6098 18.2939C26.5272 18.2629 26.4445 18.2526 26.3618 18.2629V18.2732Z" fill="#CF001C"/>
<path d="M30.4645 9.37639C34.0295 8.21906 37.4809 7.59906 40.4465 7.50606C38.8759 6.05939 36.9435 5.05706 34.8562 4.61272C32.7689 4.16839 30.5989 4.29239 28.5735 4.97439C26.5482 5.65639 24.7502 6.86539 23.3552 8.48772C21.9602 10.1101 21.0302 12.0631 20.6582 14.1711C23.1899 12.3421 26.5895 10.6371 30.4645 9.37639Z" fill="#CF001C"/>
<path d="M36.6953 20.8669C39.1443 20.0713 41.49 18.9759 43.6807 17.6016C43.908 15.8449 43.7427 14.0573 43.2053 12.3626C42.668 10.6679 41.7587 9.11792 40.5497 7.81592C37.987 8.02258 35.4657 8.53925 33.0373 9.36592C30.8467 10.0789 28.749 11.0296 26.765 12.1973H29.1003V13.0963H26.61V14.1503H28.811V15.0183H26.61V16.1343H29.1933V17.0333H25.525V12.9929C22.2493 15.2353 20.441 17.7463 21.061 19.7096C22.0737 22.8819 29.0693 23.4089 36.6953 20.8773V20.8669ZM31.6113 19.9783H31.167V18.0253H31.6113V19.9783ZM33.647 18.3869H33.0373V19.9679H32.593V18.3869H31.9833V18.0149H33.647V18.3869ZM37.5427 19.9783H36.1477V18.0253H36.592V19.6063H37.5427V19.9783ZM34.6183 12.2076H38.7517V13.1169H37.2327V17.0436H36.1373V13.1169H34.6183V12.2076ZM34.9593 18.0149L35.8067 19.9679H35.3417L35.1763 19.5443H34.2877L34.1223 19.9679H33.6677L34.515 18.0149H34.949H34.9593ZM29.9063 13.3339C30.1233 12.9516 30.454 12.6519 30.8363 12.4453C31.2497 12.2283 31.7147 12.1146 32.1797 12.1249C32.562 12.1249 32.9547 12.1973 33.306 12.3419C33.6367 12.4763 33.926 12.6933 34.1637 12.9619L33.461 13.6233C33.306 13.4476 33.12 13.3133 32.903 13.2203C32.6963 13.1273 32.4587 13.0756 32.2313 13.0756C31.9523 13.0756 31.6733 13.1376 31.4253 13.2719C31.198 13.3959 31.0017 13.5923 30.8777 13.8196C30.7537 14.0676 30.6813 14.3466 30.6813 14.6256C30.6813 14.9046 30.7537 15.1836 30.8777 15.4316C31.0017 15.6589 31.1877 15.8553 31.4253 15.9793C31.6733 16.1136 31.942 16.1859 32.221 16.1756C32.5207 16.1756 32.81 16.1136 33.0787 15.9689V14.5533H34.081V16.5166C33.8123 16.7233 33.5127 16.8783 33.1923 16.9713C32.8617 17.0746 32.5207 17.1263 32.1693 17.1263C31.7043 17.1263 31.2497 17.0229 30.8467 16.8059C30.4643 16.5993 30.144 16.2893 29.927 15.9173C29.71 15.5246 29.5963 15.0803 29.5963 14.6256C29.5963 14.1709 29.71 13.7266 29.927 13.3339H29.9063ZM28.9557 18.4799C29.0487 18.3249 29.1727 18.2009 29.3277 18.1183C29.493 18.0253 29.679 17.9839 29.865 17.9839C30.02 17.9839 30.175 18.0149 30.3197 18.0666C30.454 18.1183 30.5677 18.2113 30.6607 18.3146L30.3817 18.5833C30.3197 18.5109 30.2473 18.4593 30.1543 18.4179C30.0717 18.3766 29.9787 18.3559 29.8857 18.3663C29.772 18.3663 29.6583 18.3869 29.5653 18.4489C29.4723 18.5006 29.4 18.5729 29.3483 18.6659C29.2967 18.7693 29.2657 18.8829 29.2657 18.9863C29.2657 19.0896 29.2967 19.2136 29.3483 19.3066C29.4 19.3996 29.4723 19.4719 29.5653 19.5236C29.6583 19.5753 29.772 19.6063 29.8857 19.6063C30.0097 19.6063 30.1233 19.5753 30.2267 19.5236V18.9553H30.6297V19.7509C30.5263 19.8336 30.4023 19.8956 30.268 19.9369C30.1337 19.9783 29.9993 19.9989 29.8547 19.9989C29.6687 19.9989 29.4827 19.9576 29.3173 19.8646C29.1623 19.7819 29.0383 19.6579 28.9453 19.5029C28.8523 19.3479 28.811 19.1619 28.811 18.9863C28.811 18.8106 28.8523 18.6246 28.9453 18.4696L28.9557 18.4799ZM27.912 18.0149H28.3563V19.9679H27.912V18.0149ZM27.3127 19.5133C27.2197 19.6579 27.0957 19.7819 26.9407 19.8543C26.765 19.9369 26.579 19.9783 26.393 19.9783H25.525V18.0253H26.393C26.579 18.0253 26.7753 18.0666 26.9407 18.1493C27.0957 18.2216 27.2197 18.3456 27.3127 18.4903C27.3953 18.6453 27.447 18.8209 27.447 19.0069C27.447 19.1929 27.4057 19.3583 27.3127 19.5236V19.5133Z" fill="#CF001C"/>
</g>
<path d="M50.0002 7.01909H55.326V8.33409H51.6275V9.86346H54.8987V11.1292H51.6275V12.7564H55.4575V14.0714H50.0002V7.01909ZM63.5449 7.03546H69.6926V8.36685H67.4406V14.0707H65.8133V8.35012H63.5612V7.03546H63.5449ZM56.526 8.67931C56.8533 8.12394 57.3323 7.67345 57.9067 7.38069C58.4745 7.10487 59.0933 6.94935 59.7241 6.92389C60.3548 6.89843 60.9841 7.00358 61.5723 7.23273C62.059 7.43124 62.4924 7.74085 62.838 8.13682L61.786 9.10661C61.5539 8.85488 61.2716 8.65461 60.9573 8.51869C60.6431 8.38278 60.3038 8.31426 59.9614 8.31754C59.5447 8.31244 59.133 8.40835 58.7614 8.59706C58.4199 8.77915 58.1354 9.05227 57.9396 9.38613C57.7375 9.7473 57.6354 10.1558 57.6437 10.5696C57.636 10.9781 57.7382 11.3811 57.9396 11.7366C58.129 12.074 58.4077 12.3527 58.7451 12.5421C59.108 12.738 59.5163 12.8344 59.9285 12.8216C60.3684 12.8297 60.8034 12.728 61.1942 12.5257V10.4546H62.6897V13.3148C62.2922 13.6173 61.8402 13.8405 61.3583 13.9723C60.8624 14.1217 60.3476 14.1992 59.8297 14.2025C59.1439 14.2175 58.4655 14.0591 57.8572 13.7421C57.2862 13.4445 56.8084 12.9951 56.4765 12.4434C56.1451 11.8751 55.9746 11.2274 55.9833 10.5696C56.0128 9.90557 56.1989 9.25792 56.526 8.67931Z" fill="white"/>
<path d="M72.394 24.7968H70.7713V17.798H72.394V24.7968ZM79.8585 19.0926H77.6273V24.7968H76.0047V19.0927H73.774V17.7574H79.8592L79.8585 19.0926ZM94.1386 24.7968H89.0271V17.798H90.6497V23.5023H94.1792V24.7968H94.1386ZM84.6861 17.7576L87.8098 24.7564H86.106L85.4974 23.2596H82.2521L81.6436 24.7564H79.9397L83.0634 17.7576H84.6861ZM62.6169 19.4162C62.9392 18.8583 63.419 18.408 63.9962 18.1217C64.6056 17.7905 65.2905 17.6232 65.984 17.6362C66.5543 17.6336 67.1195 17.7436 67.6473 17.9599C68.1261 18.1618 68.5553 18.4656 68.9049 18.8501L67.8502 19.8209C67.6218 19.563 67.3405 19.3572 67.0255 19.2176C66.7105 19.078 66.3691 19.0079 66.0246 19.0119C65.6137 18.9953 65.2064 19.0933 64.8481 19.2952C64.5029 19.4777 64.2202 19.7595 64.0368 20.1042C63.8345 20.4611 63.7361 20.8675 63.7528 21.2775C63.7406 21.6869 63.8387 22.0921 64.0368 22.4506C64.2358 22.7977 64.5266 23.0833 64.8773 23.276C65.2279 23.4687 65.6249 23.561 66.0246 23.5429C66.4614 23.5597 66.8949 23.462 67.2823 23.2596V21.1963H68.7422V24.0282C68.3481 24.3384 67.8914 24.5593 67.4035 24.6756C66.9191 24.8351 66.4125 24.917 65.9025 24.9182C65.2219 24.9311 64.5501 24.7636 63.9552 24.4327C63.3864 24.1346 62.9095 23.687 62.576 23.1382C62.2506 22.5724 62.0825 21.9299 62.0892 21.2773C62.0893 20.6203 62.2718 19.9762 62.6164 19.4168L62.6169 19.4162ZM58.7629 17.7576H60.3853V24.7564H58.7627L58.7629 17.7576ZM56.573 23.0976C56.246 23.6319 55.7653 24.055 55.1937 24.3113C54.5614 24.6154 53.8668 24.7678 53.1653 24.7564H50.0002V17.7576H53.1646C53.8655 17.7521 54.5587 17.9043 55.193 18.2027C55.7574 18.47 56.2354 18.8906 56.5723 19.4164C56.8913 19.9774 57.0591 20.6117 57.0591 21.2571C57.0591 21.9025 56.8913 22.5368 56.5723 23.0978L56.573 23.0976ZM83.8755 19.3765L82.7396 22.0472H84.9708L83.8755 19.3765ZM53.1247 19.0933H51.6647V23.422H53.1247C53.7302 23.4464 54.3231 23.2445 54.7879 22.8556C54.9921 22.6484 55.1514 22.4014 55.2561 22.13C55.3608 21.8585 55.4086 21.5685 55.3965 21.2778C55.4118 20.9868 55.3655 20.6959 55.2606 20.424C55.1557 20.1521 54.9947 19.9054 54.7879 19.7C54.5652 19.4929 54.3031 19.3324 54.0174 19.2281C53.7316 19.1238 53.4278 19.0778 53.124 19.0927L53.1247 19.0933Z" fill="white"/>
<defs>
<clipPath id="clip0_39950_784175">
<rect width="24.8" height="24.8" fill="white" transform="translate(19.821 3.6001)"/>
</clipPath>
</defs>
</svg>
