<svg width="146" height="40" viewBox="0 0 146 40" fill="none" xmlns="http://www.w3.org/2000/svg">
<path d="M77.2438 5H69.9167L71.1926 20.1364H73.5722H75.9517L77.2438 5Z" fill="white"/>
<path d="M86.5682 10.8926C81.6291 10.8926 78.4659 12.181 77.9387 15.8223H84.0432C84.2374 14.898 85.0699 14.5899 86.5682 14.5899C88.5106 14.5899 88.9823 15.2901 88.9823 16.6626V17.0268C79.2151 16.5506 77.134 18.6233 77.134 22.0965C77.134 25.1776 79.3816 26.6341 83.5715 26.6341C86.2353 26.6341 87.9833 25.7378 88.9823 24.7294V26.214H95.8082V16.6626C95.8082 11.7329 91.4518 10.8926 86.5682 10.8926ZM88.9823 22.1245C88.2331 22.8248 87.0677 23.3289 85.597 23.3289C84.7091 23.3289 83.6825 23.1329 83.6825 21.9845C83.6825 20.4439 85.5693 20.3319 88.9823 20.5V22.1245Z" fill="white"/>
<path d="M69.3159 20.1358C69.7043 13.1894 64.2936 10.8926 59.8262 10.8926C55.0258 10.8926 50.0312 12.9933 50.0312 18.7634C50.0312 24.5334 55.0813 26.6341 59.9649 26.6341C64.0993 26.6341 68.1505 25.2616 69.0939 21.1722H62.8507C62.2957 21.9845 61.38 22.5166 59.9649 22.5166C57.9393 22.5166 56.8849 21.5363 56.5242 20.1358H69.3159ZM59.8262 15.01C61.5743 15.01 62.4899 15.8503 62.8784 17.2228H56.552C56.9404 15.9344 57.8838 15.01 59.8262 15.01Z" fill="white"/>
<path d="M57.4748 31.9212H54.2745V33.1427H55.7614C55.6198 33.5142 55.2587 33.857 54.4869 33.857C53.524 33.857 52.8939 33.3499 52.8939 32.3926C52.8939 31.4426 53.3824 30.9354 54.3453 30.9354C55.0605 30.9354 55.4215 31.164 55.6411 31.564H57.3687C57.05 30.3068 55.7897 29.7925 54.3524 29.7925C52.7593 29.7925 51.1946 30.4854 51.1946 32.3926C51.1946 34.307 52.7381 34.9999 54.4799 34.9999C56.3986 34.9999 57.666 34.1142 57.4748 31.9212ZM65.2538 34.8928H67.0027L64.7086 29.8925H62.5465L60.2595 34.8928H62.0084L62.3199 34.1213H64.9352L65.2538 34.8928ZM62.7872 32.9641L63.4989 31.1569H63.7775L64.475 32.9641H62.7872ZM86.3875 33.7427H83.1093V32.9069H86.1184V31.7497H83.1093V31.0497H86.3167V29.8925H81.4312V34.8928H86.3875V33.7427ZM93.3351 31.7712C92.4855 31.6855 91.8695 31.6569 91.8695 31.314C91.8695 31.0283 92.2235 30.9283 92.9032 30.9283C93.5475 30.9283 93.944 31.0783 93.944 31.4211H95.6504C95.6504 30.5569 95.0273 29.7925 92.9244 29.7925C90.9986 29.7925 90.1985 30.3783 90.1985 31.3926C90.1985 32.3926 90.7366 32.7141 92.2589 32.9498C93.6821 33.1713 94.1635 33.1498 94.1635 33.4856C94.1635 33.7642 93.767 33.8642 93.1015 33.8642C92.4076 33.8642 91.8411 33.7356 91.8411 33.2713H90.0852C90.0852 34.3213 90.9136 34.9999 93.0094 34.9999C94.9565 34.9999 95.969 34.5071 95.969 33.307C95.969 32.0426 94.8857 31.9355 93.3351 31.7712Z" fill="white"/>
<path d="M73.5904 33.1789L74.7517 29.8931H77.2014V34.8933H75.5234L75.5204 31.6431L74.3309 34.8933H72.847L71.6576 31.6431V34.8933H69.9795V29.8931H72.4293L73.5904 33.1789Z" fill="white"/>
<path fill-rule="evenodd" clip-rule="evenodd" d="M75.87 24.5157C75.4121 24.2775 74.9228 24.1069 74.417 24.009C74.9228 23.9111 75.4121 23.7405 75.87 23.5024C76.0869 23.3909 76.2097 23.2034 76.2097 22.9656C76.2097 22.6669 76.0003 22.4283 75.7052 22.38C75.5797 22.3609 75.4634 22.3024 75.373 22.2125C75.2841 22.1212 75.226 22.0038 75.2071 21.8772C75.1592 21.5793 74.9221 21.3679 74.6269 21.3679C74.3914 21.3679 74.2058 21.4919 74.0954 21.7108C73.8593 22.1732 73.6902 22.6674 73.5932 23.1783C73.4966 22.6674 73.3278 22.1731 73.0921 21.7106C72.9817 21.4916 72.7961 21.3677 72.5605 21.3677C72.2646 21.3677 72.0283 21.579 71.9804 21.877C71.9615 22.0036 71.9035 22.121 71.8145 22.2123C71.7241 22.3021 71.6078 22.3607 71.4823 22.3797C71.1871 22.4281 70.9778 22.6674 70.9778 22.9653C70.9778 23.2031 71.1006 23.3907 71.3175 23.5021C71.7753 23.7403 72.2646 23.9109 72.7705 24.0088C72.2646 24.1066 71.7753 24.2772 71.3175 24.5154C71.1006 24.6268 70.9778 24.8141 70.9778 25.0519C70.9778 25.3506 71.1871 25.5892 71.4823 25.6378C71.6078 25.6568 71.7241 25.7154 71.8145 25.8052C71.9034 25.8966 71.9614 26.014 71.9804 26.1405C72.0283 26.4385 72.2654 26.6498 72.5605 26.6498C72.7961 26.6498 72.9817 26.5259 73.0921 26.3069C73.3281 25.8449 73.4972 25.3511 73.5943 24.8406C73.6912 25.351 73.8603 25.8449 74.0962 26.3069C74.2066 26.5259 74.3921 26.6498 74.6277 26.6498C74.9236 26.6498 75.1599 26.4385 75.2079 26.1405C75.227 26.014 75.285 25.8967 75.3737 25.8052C75.4642 25.7154 75.5805 25.6569 75.706 25.6378C76.0011 25.5892 76.2105 25.3501 76.2105 25.0519C76.2097 24.8144 76.0869 24.6271 75.87 24.5157Z" fill="#FF1351"/>
</svg>
