<svg width="146" height="40" viewBox="0 0 146 40" fill="none" xmlns="http://www.w3.org/2000/svg">
<g clip-path="url(#clip0_7725_235159)">
<path d="M109 21.861C108.557 22.5267 107.907 22.6015 107.166 22.5962C102.673 22.5748 98.1821 22.5855 93.6891 22.5855C93.4826 22.5855 93.2743 22.5979 93.0696 22.5855C92.7724 22.5804 92.4888 22.4597 92.2791 22.249C92.0693 22.0383 91.95 21.7542 91.9463 21.4569C91.9339 21.3091 91.9463 21.1614 91.9463 21.0154V7.23553C91.9372 7.05749 91.9408 6.87903 91.957 6.7015C91.9859 6.43648 92.1102 6.19101 92.3067 6.01087C92.5032 5.83072 92.7586 5.72821 93.0251 5.72243C93.2031 5.70641 93.3811 5.71175 93.5591 5.71175C98.1696 5.71175 102.78 5.72421 107.391 5.69751C108.103 5.69751 108.637 5.85416 109.007 6.47186L109 21.861ZM99.2502 11.8549V19.3688H101.673V11.8549H99.2502ZM101.579 10.6801C101.812 9.92351 101.719 9.2168 101.671 8.49941H99.1612C99.1612 9.26664 98.9529 10.0054 99.3392 10.6801H101.579Z" fill="#F71534"/>
<path d="M38.8598 27.52C38.2314 27.0928 37.9946 26.5267 38 25.7399C38.032 21.238 38.016 16.7343 38.0178 12.2324C38.0178 12.0544 38.0178 11.8764 38.0178 11.6984C38.0257 11.387 38.1558 11.0913 38.38 10.8752C38.6042 10.659 38.9044 10.5397 39.2158 10.5431C39.9848 10.5253 40.752 10.5431 41.5299 10.5431H53.4087C53.646 10.5301 53.884 10.5343 54.1207 10.5555C54.3699 10.5916 54.5988 10.7134 54.768 10.8998C54.9372 11.0863 55.0363 11.3258 55.0482 11.5773C55.0642 11.782 55.0482 11.9885 55.0482 12.195C55.0482 16.7272 55.0321 21.2594 55.0713 25.7916C55.0713 26.5321 54.8933 27.0804 54.3112 27.5147L38.8598 27.52ZM46.8934 23.9296V18.8438L48.435 18.7672C48.435 18.2332 48.5383 17.7347 48.3816 17.2737C47.885 17.1722 47.4025 17.3396 46.9682 17.1633C46.7225 15.4954 46.9504 15.2337 48.7483 15.1233C48.8035 14.6249 48.8605 14.1193 48.9174 13.6209C45.9464 12.8145 44.1307 14.8011 44.6451 17.1669C44.2891 17.3449 43.8886 17.1277 43.4756 17.336C43.5005 17.7739 43.4062 18.2261 43.5237 18.6622C43.91 18.8402 44.3372 18.5785 44.711 18.9399V23.9242L46.8934 23.9296Z" fill="white"/>
<path d="M74.7292 27.5201C74.1488 27.0412 73.9869 26.4395 73.9922 25.6865C74.0278 21.206 74.0118 16.7254 74.0136 12.2466C74.0136 12.0686 74.0136 11.8906 74.0136 11.7126C74.0456 10.9489 74.407 10.5805 75.1528 10.5466C75.2703 10.5466 75.3896 10.5466 75.5089 10.5466H89.4472C90.6256 10.5466 91.0226 10.9436 91.0244 12.1345C91.0244 16.672 91.0119 21.2131 91.0439 25.7506C91.0439 26.5303 90.8214 27.1017 90.1752 27.5165L74.7292 27.5201ZM82.9711 17.2684L79.0709 22.5037V23.7587H85.9119C85.8976 23.1677 86.0044 22.6229 85.814 22.0355H81.8977C83.2363 20.2554 84.4985 18.5661 85.7677 16.8732C85.741 16.4673 85.8513 16.0597 85.7036 15.6823H79.2204V17.2666L82.9711 17.2684Z" fill="white"/>
<path d="M56.7944 27.5199C56.1197 27.0874 56.0432 26.443 56.0467 25.706C56.0699 21.2326 56.0592 16.7591 56.0592 12.2857C56.0592 12.0489 56.0432 11.8122 56.0592 11.5737C56.0692 11.306 56.1794 11.0518 56.368 10.8615C56.5566 10.6713 56.8098 10.5588 57.0774 10.5465C57.2844 10.5349 57.4918 10.5349 57.6987 10.5465H71.3522C71.5897 10.5335 71.8278 10.5395 72.0643 10.5643C72.3139 10.5976 72.5432 10.7194 72.7105 10.9076C72.8778 11.0958 72.9719 11.3379 72.9757 11.5897C72.9881 11.7677 72.9757 11.9457 72.9757 12.1237C72.9757 16.7146 72.9614 21.3073 72.9899 25.8983C72.9899 26.6103 72.8119 27.1337 72.2316 27.5271L56.7944 27.5199ZM65.962 23.7817H68.0252C67.848 23.0629 67.7589 22.3253 67.7599 21.585C67.7848 20.4671 67.7902 19.3474 67.7599 18.2295C67.7698 17.7739 67.6554 17.3242 67.429 16.9287C67.2026 16.5332 66.8726 16.2069 66.4747 15.9848C65.4066 15.3368 64.3029 15.3884 63.1583 15.5932C62.4867 15.7207 61.8822 16.0829 61.453 16.615C61.1272 16.9995 60.8887 17.4302 61.1201 17.9785H63.0604C63.4414 17.1632 63.9879 16.8926 64.7515 17.1169C65.4084 17.311 65.6095 17.8966 65.3692 19.0163C64.7391 19.0163 64.0911 19.0163 63.4449 19.0163C62.9126 19.0213 62.3888 19.1512 61.9158 19.3955C61.4241 19.6084 61.0245 19.9899 60.7892 20.4713C60.5539 20.9527 60.4983 21.5024 60.6323 22.0212C60.7071 22.3612 60.8406 22.6869 60.9527 23.0358C62.5175 24.3442 64.0484 24.3567 65.5116 22.8471C65.7217 23.1836 65.695 23.5467 65.962 23.7764V23.7817Z" fill="#F71534"/>
<path d="M109 3.82303C108.688 4.03308 108.407 4.24136 107.978 4.23958C102.866 4.22 97.7513 4.22356 92.6389 4.22C92.5653 4.2141 92.4922 4.20399 92.4199 4.18973C92.31 4.11423 92.2106 4.02444 92.1244 3.92271C91.7791 3.40114 92.0283 2.85465 92.6584 2.76386C92.806 2.75316 92.9541 2.75316 93.1017 2.76386C98.0077 2.76386 102.914 2.76385 107.82 2.75317C108.332 2.75317 108.72 2.88312 109.009 3.29967L109 3.82303Z" fill="#F71534"/>
<path d="M109 1.16877C108.754 1.38951 108.452 1.34678 108.162 1.34678C103.017 1.34678 97.8719 1.34678 92.7262 1.34678C92.4254 1.34678 92.0604 1.44113 91.9501 0.949821C92.2189 0.682803 92.5589 0.771809 92.8615 0.771809C95.1377 0.764689 97.4144 0.764689 99.6918 0.771809C102.412 0.771809 105.132 0.771809 107.854 0.771809C108.235 0.771809 108.617 0.802064 109 0.819865V1.16877Z" fill="#F71534"/>
<path d="M65.4583 20.2302V21.4283C64.5149 22.5355 63.8117 22.6441 62.8772 21.8341C62.7721 20.6468 63.1246 20.2534 64.3191 20.232C64.6697 20.2231 65.0204 20.2302 65.4583 20.2302Z" fill="#F71534"/>
</g>
<defs>
<clipPath id="clip0_7725_235159">
<rect width="71" height="26.7659" fill="white" transform="translate(38 0.753906)"/>
</clipPath>
</defs>
</svg>
